<svg width="157" height="381" viewBox="0 0 157 381" fill="none" xmlns="http://www.w3.org/2000/svg">
<path fill-rule="evenodd" clip-rule="evenodd" d="M84.6166 438.003C76.1762 430.469 22.7604 429.924 27.9589 419.246C79.4696 313.455 85.0698 106.612 76.8545 79.7573C72.6649 66.0623 77.5628 51.3467 90.7783 45.8164C103.997 40.2839 119.075 43.2628 125.9 55.8535C138.729 79.5171 187.145 302.942 125.27 430.014C118.997 442.896 103.458 448.259 90.5651 441.986C88.3562 440.913 86.3651 439.564 84.6166 438.003Z" fill="#FBC399"/>
<path fill-rule="evenodd" clip-rule="evenodd" d="M104.65 439.803C102.44 438.727 100.449 437.378 98.7022 435.819C90.2602 428.283 37.2976 427.947 42.0426 417.06C107.829 266.146 91.5745 79.0936 90.9376 77.5724C85.536 64.6408 91.4053 49.8328 104.044 44.0209C99.6843 43.4693 95.1262 43.996 90.7778 45.8164C77.5626 51.3467 71.3331 66.5424 76.854 79.7573C77.4913 81.2801 97.0557 219.786 27.9587 419.246C24.0714 430.467 76.176 430.469 84.6164 438.003C86.365 439.564 88.3557 440.913 90.5646 441.986C97.8572 445.532 105.993 445.355 112.822 442.203C110.055 441.861 107.296 441.089 104.65 439.803Z" fill="#EA9975"/>
<path fill-rule="evenodd" clip-rule="evenodd" d="M24.549 68.7243C20.4371 65.0536 18.9785 59.0072 21.3656 53.7171L31.7787 30.6352C33.8768 25.9841 38.5076 22.9948 43.612 22.9916L84.5838 22.991C91.75 22.991 97.5634 28.8006 97.5649 35.9607C97.5668 43.1242 91.7544 48.9364 84.585 48.9348L51.9997 48.9386L45.0346 64.3816C42.088 70.9134 34.4004 73.8194 27.8661 70.8768C26.6241 70.3178 25.5128 69.5847 24.549 68.7243Z" fill="#EA9975"/>
<path fill-rule="evenodd" clip-rule="evenodd" d="M69.6454 105.394C97.2255 114.656 140.344 113.934 134.912 87.1693C126.049 43.5034 104.065 4.85598 76.5486 6.57034C76.5486 6.57034 60.953 22.692 58.7832 40.1006C88.0029 74.4565 69.6454 105.394 69.6454 105.394Z" fill="#FBC399"/>
<path fill-rule="evenodd" clip-rule="evenodd" d="M83.8809 73.6982C82.4453 63.7441 71.9295 44.0783 58.7832 40.1007C88.0032 74.4563 69.6457 105.394 69.6457 105.394C76.6259 107.738 86.5717 92.4062 83.8809 73.6982Z" fill="#EA9975"/>
<path fill-rule="evenodd" clip-rule="evenodd" d="M4.46781 72.8072C1.9197 70.5323 0.270648 67.2652 0.139279 63.5856C-0.0233523 58.9554 -0.642616 17.9778 27.3954 4.95697C53.689 -7.25118 83.7502 6.85722 85.0169 7.46349C91.483 10.5621 94.2145 18.3085 91.1144 24.7708C88.0229 31.2195 80.2942 33.9508 73.8373 30.8819C68.1998 28.2421 50.8529 22.6749 38.3321 28.4874C28.4328 33.0854 25.777 53.8896 26.0877 62.6722C26.3403 69.8329 20.7348 75.8433 13.572 76.0929C10.0873 76.2176 6.87538 74.9564 4.46781 72.8072Z" fill="#FBC399"/>
<path fill-rule="evenodd" clip-rule="evenodd" d="M12.7658 71.7818C10.2186 69.5078 8.5677 66.2407 8.43949 62.5592C8.27559 57.9309 7.65538 16.9524 35.6943 3.93251C39.6202 2.10707 43.6314 0.882843 47.6176 0.10141C40.9876 0.458988 34.0728 1.85616 27.3954 4.95696C-0.642616 17.9778 -0.0233523 58.9553 0.139279 63.5856C0.270648 67.2652 1.91938 70.5323 4.46781 72.8071C6.87538 74.9564 10.0873 76.2176 13.572 76.0929C15.4516 76.0269 17.2096 75.5469 18.7964 74.7724C16.5215 74.3056 14.442 73.278 12.7658 71.7818Z" fill="#EA9975"/>
<path fill-rule="evenodd" clip-rule="evenodd" d="M82.1361 29.8574C77.1315 27.5138 62.8992 22.8807 51.0068 25.937C60.5689 25.8771 69.9656 29.0703 73.8375 30.8819C77.5373 32.6379 81.6473 32.4852 85.0695 30.8314C84.0785 30.6234 83.0933 30.3116 82.1361 29.8574Z" fill="#EA9975"/>
<path fill-rule="evenodd" clip-rule="evenodd" d="M83.8051 14.9224C73.3616 12.5185 38.1827 6.61356 22.1181 15.2365C13.4279 20.1734 7.0954 27.7072 3.28887 37.0765C-0.135236 49.6608 0.0577117 61.2504 0.139817 63.5856C0.271185 67.2655 1.91992 70.5323 4.46834 72.8072C6.87592 74.9564 10.0878 76.2176 13.5726 76.0929C19.2268 75.8963 23.8572 72.0873 25.456 66.9843C24.43 58.6041 25.2593 51.5078 27.8412 46.2006C29.6077 38.5229 32.8616 31.0276 38.3327 28.4874C50.8531 22.6749 68.2003 28.2421 73.8378 30.8818C80.2948 33.9508 88.0231 31.2195 91.1147 24.7708C91.835 23.2651 92.23 21.6921 92.3462 20.122C90.2658 17.475 87.2889 15.53 83.8051 14.9224Z" fill="#EA9975"/>
<path fill-rule="evenodd" clip-rule="evenodd" d="M9.07158 92.7012C7.11748 90.9569 5.67085 88.6095 5.05664 85.8593C-1.35547 57.1423 6.51748 33.3247 26.1173 22.1463C42.0072 13.0813 75.0912 15.8917 84.8528 16.9689C91.9812 17.7541 97.1197 24.1675 96.3324 31.2859C95.5442 38.4081 89.1312 43.5442 82.006 42.7584C65.9361 41.0014 44.8177 41.353 38.9844 44.6807C29.6712 49.9929 26.5401 62.9408 30.3946 80.2072C31.9559 87.1981 27.5494 94.1334 20.5531 95.6928C16.3082 96.64 12.0852 95.3914 9.07158 92.7012Z" fill="#FBC399"/>
<path fill-rule="evenodd" clip-rule="evenodd" d="M22.8301 114.131C18.9184 110.639 17.3669 104.964 19.3659 99.7851C21.9402 93.1092 29.4348 89.7811 36.1153 92.334C41.3808 94.3287 57.4981 98.7566 68.7193 95.3029C79.6766 91.9313 84.398 77.2473 84.4419 77.0986C86.4449 70.2213 93.65 66.264 100.534 68.2681C107.413 70.2766 111.372 77.4707 109.372 84.3506C109.037 85.4975 100.901 112.548 76.3567 120.1C54.5549 126.81 29.5845 117.624 26.8081 116.555C25.3024 115.976 23.9666 115.145 22.8301 114.131Z" fill="#FBC399"/>
<path fill-rule="evenodd" clip-rule="evenodd" d="M18.7695 106.612C18.7695 106.612 18.9183 110.639 22.8296 114.13C23.9662 115.145 25.3023 115.976 26.8076 116.555C29.5841 117.624 54.5545 126.81 76.3563 120.1C79.7996 119.043 82.9067 117.59 85.7289 115.889C64.2183 121.912 26.5528 116.679 18.7695 106.612Z" fill="#EA9975"/>
<path d="M134.294 124.848L138.892 131.883" stroke="#EA9975" stroke-width="1.89525" stroke-linecap="round"/>
<path d="M112.553 113.938L111.059 122.208" stroke="#EA9975" stroke-width="1.89525" stroke-linecap="round"/>
<path d="M121.435 136.259L122.579 144.585" stroke="#EA9975" stroke-width="1.89525" stroke-linecap="round"/>
<path d="M135.531 192.01L136.676 200.335" stroke="#EA9975" stroke-width="1.89525" stroke-linecap="round"/>
<path d="M151.266 233.991L152.41 242.316" stroke="#EA9975" stroke-width="1.89525" stroke-linecap="round"/>
<path d="M138.729 220.745L141.164 228.789" stroke="#EA9975" stroke-width="1.89525" stroke-linecap="round"/>
<path d="M128.975 262.124L131.41 270.167" stroke="#EA9975" stroke-width="1.89525" stroke-linecap="round"/>
<path d="M143.95 277.561L146.386 285.604" stroke="#EA9975" stroke-width="1.89525" stroke-linecap="round"/>
<path d="M150.121 206.27L151.266 214.595" stroke="#EA9975" stroke-width="1.89525" stroke-linecap="round"/>
<path d="M129.147 164.884L127.362 173.096" stroke="#EA9975" stroke-width="1.89525" stroke-linecap="round"/>
<path d="M122.535 207.934L120.75 216.146" stroke="#EA9975" stroke-width="1.89525" stroke-linecap="round"/>
<path d="M114.389 313.872L112.604 322.084" stroke="#EA9975" stroke-width="1.89525" stroke-linecap="round"/>
<path d="M113.496 286.351L111.711 294.563" stroke="#EA9975" stroke-width="1.89525" stroke-linecap="round"/>
<path d="M109.614 257.934L107.829 266.146" stroke="#EA9975" stroke-width="1.89525" stroke-linecap="round"/>
<path d="M94.2543 296.229L90.0107 303.484" stroke="#EA9975" stroke-width="1.89525" stroke-linecap="round"/>
<path d="M127.223 237.011L128.073 245.371" stroke="#EA9975" stroke-width="1.89525" stroke-linecap="round"/>
<path d="M129.343 294.026L130.193 302.387" stroke="#EA9975" stroke-width="1.89525" stroke-linecap="round"/>
<path d="M108.868 146.228L104.168 153.196" stroke="#EA9975" stroke-width="1.89525" stroke-linecap="round"/>
<path d="M97.7058 134.416L93.0059 141.384" stroke="#EA9975" stroke-width="1.89525" stroke-linecap="round"/>
<path d="M114.807 186.539L111.575 194.297" stroke="#EA9975" stroke-width="1.89525" stroke-linecap="round"/>
<path d="M98.291 319.846L95.0596 327.604" stroke="#EA9975" stroke-width="1.89525" stroke-linecap="round"/>
<path d="M102.707 213.564L97.0557 219.786" stroke="#EA9975" stroke-width="1.89525" stroke-linecap="round"/>
<path d="M112.604 165.209L107.904 172.177" stroke="#EA9975" stroke-width="1.89525" stroke-linecap="round"/>
<path d="M108.691 234.669L103.991 241.638" stroke="#EA9975" stroke-width="1.89525" stroke-linecap="round"/>
<path d="M94.4821 267.978L89.7822 274.946" stroke="#EA9975" stroke-width="1.89525" stroke-linecap="round"/>
<path d="M99.0251 189.645L94.3252 196.613" stroke="#EA9975" stroke-width="1.89525" stroke-linecap="round"/>
<path d="M91.2061 239.713L86.5059 246.681" stroke="#EA9975" stroke-width="1.89525" stroke-linecap="round"/>
<path d="M95.6583 166.398L88.6064 170.975" stroke="#EA9975" stroke-width="1.89525" stroke-linecap="round"/>
<path d="M137.07 147.548L141.022 154.966" stroke="#EA9975" stroke-width="1.89525" stroke-linecap="round"/>
<path d="M143.95 177.062L147.902 184.48" stroke="#EA9975" stroke-width="1.89525" stroke-linecap="round"/>
<path d="M139.188 318.375L143.14 325.793" stroke="#EA9975" stroke-width="1.89525" stroke-linecap="round"/>
<path d="M145.926 254.225L149.877 261.643" stroke="#EA9975" stroke-width="1.89525" stroke-linecap="round"/>
<path d="M149.862 302.387L153.814 309.805" stroke="#EA9975" stroke-width="1.89525" stroke-linecap="round"/>
<path d="M23.4766 101.048L35.2296 104.474C36.5202 104.843 37.6789 105.572 38.57 106.575C41.5757 109.957 40.6748 115.25 36.7192 117.448L35.9796 117.859" stroke="#EA9975" stroke-width="1.89525" stroke-linecap="round"/>
<path d="M19.6546 92.9673L19.048 84.3043C18.9807 82.9245 18.5219 81.592 17.7252 80.4634C15.0391 76.6566 9.51653 76.316 6.38232 79.7637L5.7959 80.4082" stroke="#EA9975" stroke-width="1.89525" stroke-linecap="round"/>
</svg>
