<svg width="36" height="42" viewBox="0 0 36 42" fill="none" xmlns="http://www.w3.org/2000/svg">
<g id="Player-2">
<g id="Group-3">
<g id="Mask group">
<mask id="mask0_23_8131" style="mask-type:luminance" maskUnits="userSpaceOnUse" x="0" y="0" width="36" height="42">
<g id="Group">
<path id="Vector" d="M0 0H35.8522V41.3834H0V0Z" fill="#EE413C"/>
</g>
</mask>
<g mask="url(#mask0_23_8131)">
<path id="Fill-1" fill-rule="evenodd" clip-rule="evenodd" d="M13.8771 0.469709C5.99143 2.05263 -0.846948 10.0497 0.085412 20.6959C1.01777 31.3425 9.43611 44.3153 28.3446 40.7945C36.1983 38.9005 35.4669 30.2144 35.096 25.9316C34.7255 21.6492 37.9833 14.147 33.2778 6.95078C28.5727 -0.245083 19.4308 -0.645272 13.8771 0.469709Z" fill="#EE413C"/>
</g>
</g>
</g>
<path id="Fill-4" fill-rule="evenodd" clip-rule="evenodd" d="M6.88376 18.5716C2.85378 20.6062 2.88857 29.2003 7.9128 31.9921C12.9374 34.784 20.2272 33.1895 21.4257 30.9695C23.233 27.6206 19.004 21.4707 14.8713 19.278C11.3728 17.4221 8.92444 17.541 6.88376 18.5716Z" fill="#FFD91D"/>
<path id="Fill-6" fill-rule="evenodd" clip-rule="evenodd" d="M9.25009 21.0107C6.21962 22.5409 6.21638 28.3183 9.99476 30.4175C13.7736 32.5171 18.6425 31.3791 19.5145 29.6944C20.5347 27.7243 18.365 23.1911 15.2568 21.542C12.626 20.1461 10.7847 20.236 9.25009 21.0107Z" fill="#F3DFA2"/>
<path id="Fill-8" fill-rule="evenodd" clip-rule="evenodd" d="M35.096 25.9317C34.8501 23.0888 36.2003 18.8274 35.7618 14.1789C34.8901 12.6962 33.3866 12.1054 31.0231 13.3313C28.4999 14.6401 24.0699 19.9967 26.4944 26.6584C27.3811 29.0952 32.059 29.9269 34.6486 27.2001C34.8205 27.019 34.9864 26.7852 35.1453 26.5122C35.1288 26.3121 35.1122 26.1164 35.096 25.9317Z" fill="#FFD91D"/>
<path id="Fill-10" fill-rule="evenodd" clip-rule="evenodd" d="M30.4513 15.8115C28.5587 16.7934 25.8231 20.5635 27.6417 25.5607C28.3071 27.3885 31.2284 28.2605 33.1708 26.2148C35.1823 24.0966 36.183 12.8382 30.4513 15.8115Z" fill="#F3DFA2"/>
<path id="Fill-12" fill-rule="evenodd" clip-rule="evenodd" d="M17.6527 29.4773C16.5905 27.2085 13.321 25.8249 11.2123 27.6689C11.021 27.8357 11.1601 28.2256 11.4421 28.1448C12.5298 27.8337 13.5827 27.4918 14.7217 27.76C15.8321 28.0215 16.7495 28.7328 17.3918 29.6421C17.4949 29.7879 17.7247 29.6314 17.6527 29.4773Z" fill="#1B122E"/>
<path id="Fill-14" fill-rule="evenodd" clip-rule="evenodd" d="M29.4524 25.7936C29.7966 23.7039 31.0283 22.3334 32.5197 20.9078C32.6985 20.7362 32.5201 20.4311 32.277 20.5385C30.2525 21.432 29.1972 23.6932 29.0022 25.7556C28.9751 26.0425 29.4067 26.0718 29.4524 25.7936Z" fill="#1B122E"/>
<path id="Fill-16" fill-rule="evenodd" clip-rule="evenodd" d="M29.1933 16.953C28.4292 17.0164 27.7901 17.8156 27.3714 18.3727C26.8148 19.1133 26.3088 19.9751 26.7473 20.8808C26.8816 21.1586 27.2412 21.363 27.5587 21.2862C28.5505 21.0449 28.9158 20.2072 29.2131 19.3217C29.4356 18.6592 29.762 17.7364 29.4198 17.0664C29.3749 16.9784 29.2883 16.9451 29.1933 16.953Z" fill="#1B122E"/>
<path id="Fill-18" fill-rule="evenodd" clip-rule="evenodd" d="M13.5747 22.9403C13.8834 23.6155 14.8145 23.961 15.4747 24.2083C16.3742 24.545 17.2577 24.8077 18.0865 24.2015C18.3498 24.0086 18.4157 23.6084 18.2798 23.3278C17.8413 22.4209 16.8702 22.2656 15.9289 22.2148C15.2162 22.1768 14.1657 22.155 13.6285 22.6967C13.5618 22.764 13.5339 22.8512 13.5747 22.9403Z" fill="#1B122E"/>
<path id="Fill-20" fill-rule="evenodd" clip-rule="evenodd" d="M28.7523 29.1959C28.9213 28.7343 25.0151 22.5187 23.6823 23.0152C22.5914 23.4225 21.74 31.3197 22.3087 31.4164" fill="#FFD91D"/>
<path id="Fill-22" fill-rule="evenodd" clip-rule="evenodd" d="M25.8498 31.7122C23.1947 32.515 18.7554 33.8558 19.8678 37.0185C20.8256 39.7406 25.8413 38.7024 27.6559 37.6695C29.2925 36.7384 33.2319 35.5885 32.7752 32.2915C32.3181 28.9945 27.2017 31.3037 25.8498 31.7122Z" fill="#FFD91D"/>
<path id="Fill-24" fill-rule="evenodd" clip-rule="evenodd" d="M25.9416 32.3963C23.9143 33.0093 20.525 34.0331 21.3741 36.4477C22.1054 38.5259 25.9351 37.7335 27.3205 36.9446C28.5704 36.2338 31.5778 35.3557 31.2292 32.8381C30.8805 30.3209 26.9739 32.0841 25.9416 32.3963Z" fill="#F3DFA2"/>
<path id="Fill-26" fill-rule="evenodd" clip-rule="evenodd" d="M24.0615 23.9479C23.2744 24.2411 22.6604 29.9385 23.0705 30.0082C23.4807 30.0775 27.5968 28.7391 27.719 28.4062C27.8407 28.0734 25.0226 23.5897 24.0615 23.9479Z" fill="#F3DFA2"/>
<path id="Fill-28" fill-rule="evenodd" clip-rule="evenodd" d="M26.3095 33.792C25.5572 34.0024 22.9324 33.6415 22.4426 34.4914C21.9527 35.3409 22.2104 37.2301 27.0712 35.8603C31.932 34.4902 30.7472 32.41 29.785 32.2606C28.8227 32.1112 26.3095 33.792 26.3095 33.792Z" fill="white"/>
<path id="Fill-30" fill-rule="evenodd" clip-rule="evenodd" d="M24.7344 33.8853C24.846 34.677 24.9771 35.498 25.2028 36.2674C25.3888 36.2413 25.5842 36.2092 25.7925 36.1688C25.6218 35.4033 25.4103 34.6429 25.2376 33.8754C25.0758 33.8778 24.9067 33.881 24.7344 33.8853Z" fill="#1B122E"/>
<path id="Fill-32" fill-rule="evenodd" clip-rule="evenodd" d="M27.6484 32.9914C27.9465 33.7744 28.2426 34.5807 28.6322 35.3141C28.8065 35.2377 28.9643 35.1604 29.1123 35.0823C28.8595 34.2871 28.4817 33.5089 28.1355 32.7418C27.97 32.8219 27.8066 32.9059 27.6484 32.9914Z" fill="#1B122E"/>
<path id="Fill-34" fill-rule="evenodd" clip-rule="evenodd" d="M22.5374 15.3031C22.5613 15.3031 22.5613 15.267 22.5374 15.267C22.5136 15.267 22.5136 15.3031 22.5374 15.3031Z" fill="#FFD91D"/>
<path id="Fill-36" fill-rule="evenodd" clip-rule="evenodd" d="M7.93325 12.7057C7.3524 12.2544 6.39981 12.3293 5.85294 12.7937C4.98974 13.5271 4.91774 14.8121 5.6604 15.6608C6.1377 16.2064 6.79905 16.6815 7.56233 16.3336C8.02547 16.1232 8.43037 15.5681 8.61806 15.1049C8.98372 14.2035 8.69451 13.2973 7.93325 12.7057Z" fill="#FFD91D"/>
<path id="Fill-38" fill-rule="evenodd" clip-rule="evenodd" d="M1.69775 15.88C0.758107 16.0936 0.0599503 16.9665 0.255726 17.9376C0.51258 19.2107 1.78755 19.8958 3.04188 19.6541C4.168 19.4366 4.65622 18.3089 4.2582 17.3167C3.86705 16.3424 2.78382 15.6332 1.69775 15.88Z" fill="#FFD91D"/>
<path id="Fill-40" fill-rule="evenodd" clip-rule="evenodd" d="M1.51711 24.2118C1.94183 24.1749 2.25006 23.9741 2.56314 23.7098C3.09707 23.2589 2.86448 22.5647 2.3083 22.281C2.37424 22.3139 2.36089 22.3052 2.26826 22.2548C2.16026 22.1879 2.04781 22.1276 1.93172 22.0746C1.70237 21.9913 1.33833 21.962 1.09846 22.006C0.788214 22.0623 0.501428 22.2592 0.317383 22.5195C0.397068 23.0045 0.492529 23.4919 0.60336 23.9804C0.862237 24.1559 1.19109 24.2399 1.51711 24.2118Z" fill="#FFD91D"/>
<path id="Fill-42" fill-rule="evenodd" clip-rule="evenodd" d="M31.7983 7.35862C30.7073 8.18079 30.9957 9.71736 31.9969 10.4575C32.3698 10.7333 32.9511 10.7868 33.3661 10.572C33.9053 10.2931 34.3292 9.76649 34.4922 9.19236C34.1872 8.49976 33.8199 7.80636 33.3798 7.11534C32.8677 6.92396 32.3051 6.97706 31.7983 7.35862Z" fill="#FFD91D"/>
<path id="Fill-44" fill-rule="evenodd" clip-rule="evenodd" d="M14.0028 7.82027C15.5128 8.81163 16.3089 10.2515 16.5139 12.0135C16.6567 13.2375 16.3521 14.8945 16.8978 16.0297C17.2954 16.8574 18.3164 17.2104 18.8944 16.3542C18.9049 16.3391 18.8883 16.3205 18.8713 16.3273C17.6283 16.842 17.9281 13.0128 17.9204 12.5698C17.9042 11.6474 17.8281 10.7246 17.5248 9.84499C16.9997 8.32348 15.8684 7.05476 14.4919 6.20248C12.9876 5.27095 11.1908 4.83352 9.43004 4.70831C8.34599 4.63065 7.11066 4.71861 5.96595 4.60925C5.40451 5.13108 4.87219 5.69412 4.37305 6.29559C4.56761 6.35542 4.765 6.40812 4.96401 6.44814C8.05314 7.06903 11.1512 5.9481 14.0028 7.82027Z" fill="#FFD91D"/>
<path id="Fill-46" fill-rule="evenodd" clip-rule="evenodd" d="M19.8961 5.66888C19.6328 7.2934 19.873 8.99242 20.7391 10.4129C21.1569 11.0988 21.7066 11.6681 22.3004 12.2086C22.8056 12.669 25.955 14.7773 24.7335 15.5595C24.7197 15.5682 24.7286 15.5912 24.744 15.5916C26.0614 15.6332 26.2107 14.3795 25.5643 13.4789C24.8309 12.4578 23.6749 11.7593 22.8449 10.8166C21.5962 9.39935 21.1682 7.75461 21.5541 5.92048C22.0128 3.74005 23.4387 2.34454 24.7711 0.829763C24.0317 0.613819 23.2846 0.442649 22.5379 0.315857C22.5201 0.337253 22.5015 0.359046 22.4841 0.380442C21.2346 1.9178 20.2144 3.70637 19.8961 5.66888Z" fill="#FFD91D"/>
<path id="Fill-48" fill-rule="evenodd" clip-rule="evenodd" d="M14.2208 3.64632C14.2471 3.63839 14.2616 3.59243 14.226 3.58451C13.214 3.36024 12.2343 3.11973 11.3489 2.56304C10.9488 2.31143 10.6006 1.99405 10.2466 1.685C9.88825 1.85537 9.53594 2.04279 9.18848 2.24051C9.74182 2.57215 10.2199 3.00483 10.8145 3.30556C11.861 3.83492 13.0943 3.97994 14.2208 3.64632Z" fill="#FFD91D"/>
<path id="Fill-50" fill-rule="evenodd" clip-rule="evenodd" d="M18.1034 2.37096C18.0913 2.38483 18.1107 2.40266 18.1253 2.39632C19.2837 1.91015 19.6356 1.07847 19.9876 0.0356024C19.5996 0.0149986 19.2158 0.00469669 18.8352 0.00231934C18.8894 0.818546 18.7733 1.61298 18.1034 2.37096Z" fill="#FFD91D"/>
<path id="Fill-52" fill-rule="evenodd" clip-rule="evenodd" d="M24.0572 8.92635C24.0738 8.95211 24.1219 8.95171 24.1231 8.91447C24.1704 7.42466 24.0139 6.07471 24.6287 4.65385C25.1558 3.43505 26.0954 2.51422 27.1346 1.70552C26.8652 1.5819 26.5925 1.46819 26.3179 1.35962C23.9552 2.93303 22.4667 6.41349 24.0572 8.92635Z" fill="#FFD91D"/>
<path id="Fill-54" fill-rule="evenodd" clip-rule="evenodd" d="M3.35081 10.1829C5.89589 10.3497 10.6208 8.39868 12.3027 10.797C12.4718 11.0379 12.8669 10.7784 12.7375 10.5228C11.9621 8.995 10.4388 8.64989 8.80825 8.53458C7.2821 8.42681 4.84704 8.65702 3.01549 8.15619C2.64659 8.73547 2.30358 9.33892 1.99414 9.96853C2.41603 10.0866 2.88079 10.152 3.35081 10.1829Z" fill="#FFD91D"/>
<path id="Fill-56" fill-rule="evenodd" clip-rule="evenodd" d="M13.8774 0.469537C8.22661 1.60393 3.11502 6.03256 1.01367 12.369C1.32068 11.9538 1.64913 11.5532 1.98891 11.1688C5.2916 7.4352 9.80414 4.74403 14.7062 3.58388C19.6087 2.42373 24.8776 2.79974 29.5564 4.64457C30.6801 5.08756 31.7739 5.62405 32.7968 6.26078C27.972 -0.269029 19.2475 -0.608199 13.8774 0.469537Z" fill="#EE413C"/>
</g>
</svg>
