<svg width="30" height="28" viewBox="0 0 30 28" fill="none" xmlns="http://www.w3.org/2000/svg">
<path id="Path" d="M1.07636 11.6069C-0.365033 13.0382 -0.356738 15.3602 1.08882 16.7834L10.8252 26.3719C14.8336 30.2838 20.8524 24.416 16.8398 20.5042L16.7983 20.4635C15.548 19.2557 15.9634 18.2757 17.7246 18.2757L25.5295 18.2757C27.8722 18.2757 29.7747 16.4133 29.7747 14.1036L29.7747 14.1524C29.7747 11.8468 27.8763 9.98034 25.5295 9.98034L17.7246 9.98034C15.9634 9.98034 15.5521 8.99627 16.7983 7.79258L16.8398 7.75192C20.8523 3.84007 14.8336 -2.02771 10.8252 1.88414L1.07636 11.6069Z" fill="#B67C62"/>
</svg>
