<svg width="326" height="62" viewBox="0 0 326 62" fill="none" xmlns="http://www.w3.org/2000/svg">
<path d="M22.7421 4.77161L303.258 4.77161C308.697 4.77161 312.509 5.87892 315.768 7.95824C319.028 10.0375 321.586 13.0889 323.329 16.9768C325.072 20.8648 326 25.4124 326 31.9007V34.7109C326 41.1992 325.072 45.7468 323.329 49.6348C321.586 53.5228 319.028 56.5741 315.768 58.6534C312.509 60.7327 308.697 61.84 303.258 61.84H22.7421C17.303 61.84 13.4908 60.7327 10.2315 58.6534C6.97228 56.5741 4.4144 53.5228 2.67133 49.6348C0.928256 45.7468 0 41.1992 0 34.7109L0 31.9007C0 25.4124 0.928256 20.8648 2.67133 16.9768C4.4144 13.0889 6.97228 10.0375 10.2315 7.95824C13.4908 5.87892 17.303 4.77161 22.7421 4.77161Z" fill="#EA9975"/>
<path d="M22.3865 0H303.613C308.626 0 312.509 1.10732 315.768 3.18663C319.028 5.26594 321.586 8.31725 323.329 12.2052C325.072 16.0932 326 20.7256 326 26.7049V28.1686C326 34.1478 325.072 38.7803 323.329 42.6682C321.586 46.5562 319.028 49.6075 315.768 51.6868C312.509 53.7661 308.626 54.8735 303.613 54.8735H22.3865C17.3741 54.8735 13.4908 53.7661 10.2315 51.6868C6.97228 49.6075 4.4144 46.5562 2.67133 42.6682C0.928256 38.7803 0 34.1478 0 28.1686L0 26.7049C0 20.7256 0.928256 16.0932 2.67133 12.2052C4.4144 8.31725 6.97228 5.26594 10.2315 3.18663C13.4908 1.10732 17.3741 0 22.3865 0Z" fill="#FBC399"/>
</svg>
