<svg width="111" height="70" viewBox="0 0 111 70" fill="none" xmlns="http://www.w3.org/2000/svg">
<path fill-rule="evenodd" clip-rule="evenodd" d="M38.2481 5H72.7519C81.8995 5 88.3109 6.26122 93.7924 8.62952C99.2739 10.9978 103.576 14.4732 106.507 18.9016C109.439 23.3299 111 28.5095 111 35.8996V39.1004C111 46.4905 109.439 51.6701 106.507 56.0984C103.576 60.5268 99.2739 64.0022 93.7924 66.3705C88.3109 68.7388 81.8995 70 72.7519 70H38.2481C29.1005 70 22.6891 68.7388 17.2076 66.3705C11.7261 64.0022 7.42421 60.5268 4.49269 56.0984C1.56116 51.6701 0 46.4905 0 39.1004L0 35.8996C0 28.5095 1.56116 23.3299 4.49269 18.9016C7.42421 14.4732 11.7261 10.9978 17.2076 8.62952C22.6891 6.26122 29.1005 5 38.2481 5Z" fill="#EA9975"/>
<path d="M37.65 0L73.35 0C81.7799 0 88.3109 1.25113 93.7924 3.60048C99.2739 5.94984 103.576 9.39743 106.507 13.7903C109.439 18.1833 111 23.4173 111 30.1731V31.8269C111 38.5827 109.439 43.8167 106.507 48.2097C103.576 52.6026 99.2739 56.0502 93.7924 58.3995C88.3109 60.7489 81.7799 62 73.35 62H37.65C29.2201 62 22.6891 60.7489 17.2076 58.3995C11.7261 56.0502 7.42421 52.6026 4.49269 48.2097C1.56116 43.8167 0 38.5827 0 31.8269L0 30.1731C0 23.4173 1.56116 18.1833 4.49269 13.7903C7.42421 9.39743 11.7261 5.94984 17.2076 3.60048C22.6891 1.25113 29.2201 0 37.65 0Z" fill="#FBC399"/>
</svg>
