<svg width="38" height="61" viewBox="0 0 38 61" fill="none" xmlns="http://www.w3.org/2000/svg">
<path fill-rule="evenodd" clip-rule="evenodd" d="M22.3828 1.82665C23.2999 2.71129 23.9007 4.09187 23.9007 5.68153V6.42914C24.5327 6.13657 25.2003 6.0086 25.8739 6.0086C27.0302 6.0086 28.2073 6.40528 29.1264 7.29356C30.0454 8.18185 30.6442 9.57618 30.6442 11.1718V14.2323C31.2762 13.9394 31.9654 13.8118 32.6391 13.8118C33.7918 13.8118 34.9529 14.2121 35.8699 15.0968C36.7868 15.9814 37.3877 17.362 37.3877 18.9516V40.2587C37.3877 46.7292 35.1112 51.7691 31.6633 55.0941C28.2155 58.4191 23.6574 60.047 19.1304 60.047C14.6034 60.047 10.067 58.4191 6.61914 55.0941C3.17136 51.7691 0.873047 46.7292 0.873047 40.2587V27.1053C0.873047 25.5143 1.49296 24.1344 2.4126 23.2504C3.33222 22.3664 4.48878 21.9655 5.64336 21.9655C6.31823 21.9655 7.00508 22.0934 7.63824 22.386V11.1484C7.63824 9.55878 8.2391 8.1782 9.15614 7.29356C10.0731 6.40892 11.2559 5.98524 12.4086 5.98524C13.084 5.98524 13.7483 6.13454 14.3818 6.42914V5.68153C14.3818 4.09187 14.9826 2.71129 15.8996 1.82665C16.8165 0.941982 17.9777 0.541687 19.1304 0.541687C20.3189 0.569073 21.6254 1.11526 22.3828 1.82665ZM19.1304 3.53213C18.599 3.53213 18.0888 3.71223 17.7427 4.04611C17.3965 4.38001 17.1572 4.83407 17.1572 5.68153V29.5351C17.1676 30.325 16.5027 31.0516 15.7695 31.0516C15.0363 31.0516 14.3714 30.325 14.3818 29.5351V11.2652C14.4317 10.5492 14.0861 9.98024 13.7963 9.51305C13.4503 9.17915 12.94 8.97568 12.4086 8.97568C11.8772 8.97568 11.3453 9.17915 10.9992 9.51305C10.6531 9.84693 10.4137 10.301 10.4137 11.1484C10.4137 20.7199 10.4137 30.2716 10.4137 39.8381C10.4241 40.6281 9.75918 41.3546 9.02594 41.3546C8.29275 41.3546 7.62789 40.6281 7.63824 39.8381V27.2454C7.69165 26.529 7.34653 25.9567 7.05283 25.4933C6.70477 25.1587 6.17905 24.9559 5.64336 24.9559C5.10776 24.9559 4.60374 25.1587 4.25566 25.4933C3.90759 25.8278 3.64852 26.2592 3.64852 27.1053V40.2587C3.64852 45.9867 5.58537 50.1002 8.46226 52.8746C11.3391 55.649 15.2244 57.0565 19.1304 57.0565C23.0363 57.0565 26.9217 55.649 29.7986 52.8746C32.6754 50.1002 34.6122 45.9867 34.6122 40.2587V18.9516C34.6122 18.1042 34.3729 17.6735 34.0268 17.3396C33.6807 17.0057 33.1705 16.8023 32.6391 16.8023C32.1076 16.8023 31.5974 17.0057 31.2513 17.3396C30.6967 17.9102 30.6507 18.4207 30.6442 19.1152V32.2218C30.6546 33.0117 29.9897 33.7383 29.2565 33.7383C28.5233 33.7383 27.8584 33.0117 27.8687 32.2218C27.8687 25.1989 27.8687 18.1888 27.8687 11.1718C27.8687 10.3171 27.6318 9.84992 27.2833 9.51305C26.9347 9.17615 26.4078 8.97568 25.8739 8.97568C25.34 8.97568 24.8348 9.17615 24.4861 9.51305C24.1376 9.84992 23.9007 10.3171 23.9007 11.1718V29.7687C23.9111 30.5586 23.2462 31.2852 22.513 31.2852C21.7798 31.2852 21.1149 30.5586 21.1253 29.7687C21.1183 21.733 21.1253 13.7014 21.1253 5.68153C21.1253 4.83407 20.8642 4.38001 20.5182 4.04611C20.1721 3.71223 19.6618 3.53213 19.1304 3.53213Z" fill="white"/>
</svg>
