<svg width="32" height="35" viewBox="0 0 32 35" fill="none" xmlns="http://www.w3.org/2000/svg">
<g id="Random">
<g id="Path">
<path id="Vector" d="M6.46561 0.742863L1.26163 5.93354C0.916696 6.27759 0.916696 6.8337 1.26163 7.17775C1.60656 7.5218 2.1641 7.5218 2.50903 7.17775L6.29624 3.40024V6.55564C6.29624 12.2523 11.3935 16.4126 16.324 20.4356C21.1478 24.3724 25.7042 28.0918 25.7042 32.9534C25.7042 33.4391 26.0986 33.8333 26.5864 33.8333C27.0742 33.8333 27.4686 33.4391 27.4686 32.9534C27.4686 27.2568 22.3713 23.0965 17.4408 19.0735C12.6171 15.1367 8.0606 11.419 8.0606 6.55564V3.52518L11.8584 7.18831C12.2086 7.5262 12.767 7.51652 13.1058 7.16807C13.2716 6.99649 13.3537 6.77563 13.3537 6.55564C13.3537 6.3251 13.2637 6.09632 13.0846 5.92298L7.96797 0.988361C7.82594 0.692707 7.52864 0.485046 7.17842 0.485046C7.16166 0.485046 7.14842 0.493843 7.13254 0.494724C6.89259 0.482407 6.64911 0.559837 6.46561 0.742863Z" fill="white" stroke="white" stroke-width="0.652047"/>
<path id="Vector_2" d="M24.0316 0.988346L18.9149 5.92297C18.5656 6.25998 18.5568 6.81697 18.8947 7.16718C19.2334 7.51563 19.7918 7.52531 20.1421 7.18742L23.9398 3.52517V6.55563C23.9398 9.27988 22.546 11.8466 19.4213 14.8788C19.072 15.2185 19.0631 15.7746 19.4037 16.1231C19.7433 16.4715 20.3026 16.4794 20.6511 16.1407C24.1454 12.7494 25.7042 9.79375 25.7042 6.55563V3.40022L29.4914 7.17774C29.8363 7.52179 30.3939 7.52179 30.7388 7.17774C30.9108 7.00615 30.9973 6.78089 30.9973 6.55563C30.9973 6.33037 30.9108 6.10511 30.7388 5.93352L25.5348 0.742848C25.3513 0.559824 25.1087 0.48239 24.8679 0.494709C24.852 0.49383 24.8388 0.485031 24.822 0.485031C24.4709 0.485031 24.1745 0.692691 24.0316 0.988346Z" fill="white" stroke="white" stroke-width="0.652047"/>
<path id="Vector_3" d="M6.2961 32.9534C6.2961 32.451 6.34638 31.9459 6.44431 31.4522C7.06977 28.2977 9.68809 25.6087 11.8997 23.6183C12.0929 23.4449 12.1908 23.2056 12.1908 22.9645C12.1908 22.7542 12.1158 22.543 11.9632 22.3758C11.6368 22.015 11.0793 21.9869 10.7176 22.3125C8.30394 24.485 5.44038 27.4486 4.71347 31.1108C4.59261 31.7162 4.53174 32.3366 4.53174 32.9534C4.53174 33.4391 4.92696 33.8333 5.41392 33.8333C5.90088 33.8333 6.2961 33.44 6.2961 32.9534Z" fill="white" stroke="white" stroke-width="0.652047"/>
</g>
</g>
</svg>
