<svg width="41" height="45" viewBox="0 0 41 45" fill="none" xmlns="http://www.w3.org/2000/svg">
<path d="M40.2715 11.8163C40.2715 12.5642 40.2452 30.1809 37.9655 34.7813C35.5961 39.5643 32.5103 44.2339 23.2887 44.2339C15.2815 44.2339 8.34689 40.3947 3.76204 33.4242C-0.714752 26.6194 0.58279 17.8269 4.54699 14.1909C5.74523 13.0932 6.70324 12.4956 7.3239 12.1803L7.31586 9.23989C7.31586 6.03497 9.4283 3.71122 12.3388 3.71122C13.4852 3.71122 14.4958 4.06486 15.2983 4.69479C16.0394 2.13086 18.5425 0.76416 20.9215 0.76416C23.1201 0.76416 24.9988 2.17212 25.7188 4.14148C26.6002 3.41282 27.7268 2.97445 28.9536 2.97445C31.629 2.97445 33.8319 5.05949 34.0481 7.70447C34.7089 7.4945 35.3544 7.39503 35.7078 7.39503C38.1817 7.39577 40.2715 9.4204 40.2715 11.8163ZM38.0758 11.8163C38.0758 10.639 37.02 9.60606 35.7553 9.60606C35.2587 9.60606 34.1642 9.87424 34.1642 10.0805V12.9215C34.1642 13.5315 33.6735 14.0266 33.0689 14.0266C32.4643 14.0266 31.9736 13.5315 31.9736 12.9215V8.13253C31.9736 6.50723 30.6637 5.18548 29.0529 5.18548C27.4421 5.18548 26.1321 6.50723 26.1321 8.13253V9.97444C26.1321 10.5845 25.6414 11.0796 25.0368 11.0796C24.4322 11.0796 23.9415 10.5845 23.9415 9.97444V5.92224C23.9415 4.29694 22.6316 2.97519 21.0208 2.97519C19.5531 2.97519 17.3698 3.85783 17.3698 6.29062V9.23768C17.3698 9.84772 16.7959 10.3428 16.1913 10.3428C15.5867 10.3428 15.0376 9.84772 15.0376 9.23768C15.0376 7.70816 14.2899 5.92224 12.2673 5.92224C10.3104 5.92224 9.33776 7.58733 9.33776 9.23768V22.5002C9.33776 23.4521 9.0172 23.9737 8.36076 23.9737C7.70432 23.9737 7.39181 23.4211 7.39181 22.5002L7.40276 14.7789C7.40276 14.7789 6.38414 15.383 5.89857 15.8288C1.63208 19.741 2.87851 28.1401 5.55173 32.2041C9.71672 38.5373 16.0219 42.0251 23.2712 42.0251C31.2602 42.0251 33.7655 38.2978 35.997 33.794C37.699 30.3592 38.0758 16.7645 38.0758 11.8163Z" fill="white" stroke="white" stroke-width="0.652047"/>
</svg>
