<svg width="38" height="61" viewBox="0 0 38 61" fill="none" xmlns="http://www.w3.org/2000/svg">
<path fill-rule="evenodd" clip-rule="evenodd" d="M5.57755 6.21546C5.3456 5.10361 6.06622 4.01023 7.18535 3.7791C8.30586 3.55072 9.40502 4.2646 9.63766 5.37713L14.4198 28.2405C14.5746 28.9797 15.3021 29.4556 16.0475 29.301C16.2451 29.2607 16.4213 29.178 16.5741 29.0672C17.0208 28.888 17.3628 28.4846 17.4282 27.9759L20.4167 4.53675C20.4862 3.99108 20.7649 3.5049 21.2027 3.16779C21.6411 2.83068 22.1842 2.6823 22.7334 2.75273C23.2826 2.82179 23.772 3.09941 24.1113 3.53431C24.4506 3.96852 24.5993 4.50871 24.5298 5.05438L21.5764 28.2213C21.5083 28.7547 21.7623 29.2511 22.1849 29.5294C22.4436 29.8488 22.827 30.0477 23.2434 30.0477C24.0026 30.0477 24.62 29.4344 24.62 28.6802V26.9707C24.62 25.6509 25.7012 24.5774 27.0289 24.5774C28.3573 24.5774 29.4379 25.6509 29.4379 26.9707V31.4153C29.4379 32.1696 30.0559 32.7829 30.8144 32.7829C31.5736 32.7829 32.1909 32.1696 32.1909 31.4153V28.9229C32.4188 28.8224 33.0017 28.6802 33.3466 28.6802C34.3287 28.6802 35.1897 29.4788 35.1897 30.3896C35.1897 36.7394 34.6673 47.851 33.2667 50.6341C31.2157 54.7102 28.921 58.084 21.5799 58.084C14.8541 58.084 9.02372 54.9016 5.16321 49.1222C2.69782 45.4318 1.578 37.8485 5.43507 34.3659C5.8267 34.0124 6.6306 33.5317 6.76757 33.4503L7.72633 40.0291C7.82613 40.7102 8.4146 41.2011 9.08704 41.2011C9.15243 41.2011 9.21919 41.1963 9.28596 41.1874C10.0382 41.0787 10.5599 40.3854 10.4512 39.638L5.592 6.29752L5.57755 6.21546ZM33.3018 25.9443C33.0403 25.9443 32.5764 25.9963 32.0292 26.1351C31.6231 23.696 29.4619 21.8415 26.9353 21.8415C26.3117 21.8415 25.6992 21.9667 25.1217 22.1834L27.2609 5.39833C27.4233 4.12784 27.0771 2.87034 26.287 1.85832C25.4975 0.845625 24.3584 0.200123 23.0796 0.0394314C21.8001 -0.123312 20.5351 0.22132 19.5157 1.00632C18.4971 1.79063 17.8467 2.92299 17.6849 4.19348L15.6084 20.4801L12.3329 4.82052C11.792 2.23236 9.23158 0.563219 6.62578 1.10137C4.03513 1.63609 2.35988 4.15382 2.87333 6.72762L6.32019 30.3808C5.18248 31.0051 3.84998 31.946 3.7784 31.9972C-0.306488 34.917 -1.60801 43.8809 2.90361 50.6327C7.29065 57.2012 13.929 60.8185 21.5957 60.8185C30.4854 60.8185 33.4567 56.3909 35.7383 51.856C37.9229 47.516 37.9477 31.0864 37.9477 30.3896C37.9477 27.9806 35.8202 25.945 33.3018 25.9443Z" fill="white"/>
</svg>
