<svg width="150" height="31" viewBox="0 0 150 31" fill="none" xmlns="http://www.w3.org/2000/svg">
<path d="M0.528409 30V0.90909H12.0057C14.2027 0.90909 16.0777 1.30208 17.6307 2.08807C19.1932 2.86458 20.3816 3.9678 21.196 5.39773C22.0199 6.81818 22.4318 8.48958 22.4318 10.4119C22.4318 12.3437 22.0152 14.0057 21.1818 15.3977C20.3485 16.7803 19.1411 17.8409 17.5597 18.5795C15.9877 19.3182 14.0843 19.6875 11.8494 19.6875H4.16477V14.7443H10.8551C12.0294 14.7443 13.0047 14.5833 13.7812 14.2614C14.5578 13.9394 15.1354 13.4564 15.5142 12.8125C15.9025 12.1686 16.0966 11.3684 16.0966 10.4119C16.0966 9.44602 15.9025 8.63163 15.5142 7.96875C15.1354 7.30587 14.553 6.80398 13.767 6.46307C12.9905 6.11269 12.0104 5.9375 10.8267 5.9375H6.67898V30H0.528409ZM16.2386 16.7614L23.4688 30H16.679L9.60511 16.7614H16.2386ZM49.5163 13.054V17.8551H36.2493V13.054H49.5163Z" fill="#D94690"/>
<path d="M64.044 30V0.90909H75.5213C77.7277 0.90909 79.6075 1.33049 81.1605 2.1733C82.7135 3.00663 83.8973 4.16667 84.7116 5.65341C85.5355 7.13068 85.9474 8.83523 85.9474 10.767C85.9474 12.6989 85.5308 14.4034 84.6974 15.8807C83.8641 17.358 82.6567 18.5085 81.0753 19.3324C79.5033 20.1562 77.5999 20.5682 75.3651 20.5682H68.0497V15.6392H74.3707C75.5545 15.6392 76.5298 15.4356 77.2969 15.0284C78.0734 14.6117 78.651 14.0388 79.0298 13.3097C79.4181 12.571 79.6122 11.7235 79.6122 10.767C79.6122 9.80114 79.4181 8.95833 79.0298 8.23864C78.651 7.50947 78.0734 6.94602 77.2969 6.5483C76.5204 6.1411 75.5355 5.9375 74.3423 5.9375H70.1946V30H64.044ZM112.68 13.054V17.8551H99.4134V13.054H112.68Z" fill="#F0CA44"/>
<path d="M142.989 9.27557C142.876 8.12973 142.388 7.23958 141.526 6.60511C140.665 5.97064 139.495 5.65341 138.018 5.65341C137.014 5.65341 136.166 5.79545 135.475 6.07955C134.784 6.35417 134.254 6.73769 133.884 7.23011C133.524 7.72254 133.344 8.28125 133.344 8.90625C133.326 9.42708 133.434 9.88163 133.671 10.2699C133.917 10.6581 134.254 10.9943 134.68 11.2784C135.106 11.553 135.598 11.7945 136.157 12.0028C136.716 12.2017 137.312 12.3722 137.947 12.5142L140.56 13.1392C141.829 13.4233 142.994 13.8021 144.055 14.2756C145.115 14.7491 146.034 15.3314 146.81 16.0227C147.587 16.714 148.188 17.5284 148.614 18.4659C149.05 19.4034 149.272 20.4782 149.282 21.6903C149.272 23.4706 148.818 25.0142 147.918 26.321C147.028 27.6184 145.74 28.6269 144.055 29.3466C142.379 30.0568 140.357 30.4119 137.989 30.4119C135.641 30.4119 133.595 30.0521 131.853 29.3324C130.12 28.6127 128.766 27.5473 127.79 26.1364C126.825 24.7159 126.318 22.9593 126.271 20.8665H132.222C132.289 21.8419 132.568 22.6562 133.06 23.3097C133.562 23.9536 134.23 24.4413 135.063 24.7727C135.906 25.0947 136.858 25.2557 137.918 25.2557C138.96 25.2557 139.864 25.1042 140.631 24.8011C141.408 24.4981 142.009 24.0767 142.435 23.5369C142.862 22.9972 143.075 22.3769 143.075 21.6761C143.075 21.0227 142.88 20.4735 142.492 20.0284C142.113 19.5833 141.555 19.2045 140.816 18.892C140.087 18.5795 139.192 18.2955 138.131 18.0398L134.964 17.2443C132.511 16.6477 130.575 15.715 129.154 14.446C127.734 13.1771 127.028 11.4678 127.038 9.31818C127.028 7.55682 127.497 6.01799 128.444 4.7017C129.4 3.38542 130.712 2.35795 132.379 1.61932C134.045 0.880681 135.939 0.511363 138.06 0.511363C140.219 0.511363 142.104 0.880681 143.714 1.61932C145.333 2.35795 146.593 3.38542 147.492 4.7017C148.392 6.01799 148.856 7.54261 148.884 9.27557H142.989Z" fill="#5BC6E0"/>
</svg>
