<svg width="32" height="27" viewBox="0 0 32 27" fill="none" xmlns="http://www.w3.org/2000/svg">
<g id="Menu-icon">
<path id="Rectangle" d="M26.0426 0.5H5.95777C4.4348 0.5 3.2002 1.73461 3.2002 3.25758C3.2002 4.78054 4.4348 6.01515 5.95777 6.01515H26.0426C27.5656 6.01515 28.8002 4.78054 28.8002 3.25758C28.8002 1.73461 27.5656 0.5 26.0426 0.5Z" fill="#FBC399"/>
<path id="Rectangle-Copy" d="M29.2424 10.7424H2.75758C1.23461 10.7424 0 11.977 0 13.5C0 15.023 1.23461 16.2576 2.75758 16.2576H29.2424C30.7654 16.2576 32 15.023 32 13.5C32 11.977 30.7654 10.7424 29.2424 10.7424Z" fill="#FBC399"/>
<path id="Rectangle-Copy-4" d="M26.0426 20.9849H5.95777C4.4348 20.9849 3.2002 22.2195 3.2002 23.7424C3.2002 25.2654 4.4348 26.5 5.95777 26.5H26.0426C27.5656 26.5 28.8002 25.2654 28.8002 23.7424C28.8002 22.2195 27.5656 20.9849 26.0426 20.9849Z" fill="#FBC399"/>
</g>
</svg>
