<svg width="101" height="51" viewBox="0 0 101 51" fill="none" xmlns="http://www.w3.org/2000/svg">
<g id="Play-icon">
<path id="Rectangle" d="M75.5 1H25.5C11.969 1 1 11.969 1 25.5C1 39.031 11.969 50 25.5 50H75.5C89.031 50 100 39.031 100 25.5C100 11.969 89.031 1 75.5 1Z" fill="white" stroke="#232586"/>
<path id="Path-17-Copy" fill-rule="evenodd" clip-rule="evenodd" d="M39 13.6272V37.3729C39 38.2715 40.2475 39 41.7864 39C42.5953 39 43.3643 38.7947 43.8936 38.4375L61.3208 26.6753C62.22 26.0683 62.2271 25.1691 61.3375 24.5574L43.9103 12.5739C42.9142 11.8889 41.1557 11.8052 39.9827 12.3869C39.3593 12.6961 39 13.1496 39 13.6272Z" fill="#4847C4"/>
</g>
</svg>
