<svg width="23" height="22" viewBox="0 0 23 22" fill="none" xmlns="http://www.w3.org/2000/svg">
<path d="M22.0652 12.0636C22.3283 12.0623 22.5682 11.9114 22.6818 11.6742C22.7966 11.437 22.7643 11.1559 22.6018 10.9497C21.9968 10.1968 21.3777 9.42318 20.6889 8.64318C20.1317 7.97664 19.5538 7.30621 18.9695 6.64868V6.60743C17.294 4.68901 15.5539 2.82605 13.8101 1.02761L13.556 0.769755C13.0852 0.273393 12.4299 -0.00510265 11.7463 8.08662e-06C11.073 0.00394698 10.4293 0.283717 9.96757 0.77365L9.4684 1.28292C7.74902 3.04274 6.0696 4.85142 4.49485 6.65019C3.86542 7.37217 3.30816 8.02583 2.77548 8.63435C2.16664 9.35633 1.54365 10.1131 0.872936 10.9486L0.874226 10.946C0.666557 11.2438 0.724603 11.6512 1.00837 11.8781C1.29214 12.1037 1.70233 12.0715 1.94741 11.802L2.50076 11.1149C2.3821 14.0209 2.43756 16.9307 2.66587 19.8302L2.68264 20.0506C2.76906 21.0137 3.66681 21.7692 4.81866 21.8144L5.36169 21.8414C7.46674 21.9446 9.62331 22 11.7736 22C14.0335 22 16.345 21.9381 18.6524 21.8182C19.7978 21.7525 20.6917 21.0099 20.7781 20.0481V19.8353L20.7794 19.8341C21.0077 16.9371 21.0619 14.0285 20.9445 11.125C21.1303 11.3519 21.3199 11.5788 21.4979 11.8122C21.6359 11.9811 21.8472 12.0752 22.0652 12.0636Z" fill="#B67C62"/>
</svg>
