<svg width="66" height="52" viewBox="0 0 66 52" fill="none" xmlns="http://www.w3.org/2000/svg">
<g id="Button/m">
<g id="Mask group">
<mask id="mask0_23_6125" style="mask-type:luminance" maskUnits="userSpaceOnUse" x="0" y="0" width="66" height="46">
<g id="Group">
<path id="Vector" d="M22.3865 0L43.6135 0C48.6259 0 52.5092 0.928256 55.7685 2.67133C59.0277 4.4144 61.5856 6.97228 63.3287 10.2315C65.0717 13.4908 66 17.3741 66 22.3865V23.6135C66 28.6259 65.0717 32.5092 63.3287 35.7685C61.5856 39.0277 59.0277 41.5856 55.7685 43.3287C52.5092 45.0717 48.6259 46 43.6135 46H22.3865C17.3741 46 13.4908 45.0717 10.2315 43.3287C6.97228 41.5856 4.4144 39.0277 2.67133 35.7685C0.928256 32.5092 0 28.6259 0 23.6135V22.3865C0 17.3741 0.928256 13.4908 2.67133 10.2315C4.4144 6.97228 6.97228 4.4144 10.2315 2.67133C13.4908 0.928256 17.3741 0 22.3865 0Z" fill="#B67C62"/>
</g>
</mask>
<g mask="url(#mask0_23_6125)">
<path id="Path" d="M33.5619 12.6813V9.56382C33.5619 9.09906 33.0239 8.82555 32.674 9.12576L26.4333 14.1589C26.1643 14.378 26.1643 14.8149 26.4333 15.0339L32.674 20.0395C33.0239 20.3408 33.5619 20.0673 33.5619 19.6014V16.5928C37.3815 17.0309 40.2871 20.5587 39.8561 24.6335C39.5072 27.9712 36.8435 30.6787 33.5619 31.0342C29.4733 31.499 25.9487 28.4359 25.5988 24.4421C25.5714 24.0863 25.2762 23.8128 24.9262 23.8128H22.4243C22.0208 23.8128 21.7244 24.1408 21.7517 24.551C22.1563 30.3782 26.9175 35 32.7547 35C39.0228 35 44.1065 29.6121 43.7304 23.1301C43.408 17.6045 38.9956 13.0916 33.5619 12.6813Z" fill="#B67C62"/>
</g>
</g>
</g>
</svg>
