<svg width="155" height="379" viewBox="0 0 155 379" fill="none" xmlns="http://www.w3.org/2000/svg">
<path opacity="0.391695" fill-rule="evenodd" clip-rule="evenodd" d="M119.018 146.401L116.543 101.42C116.169 94.635 110.516 89.3939 103.784 89.4481C103.584 89.4491 103.383 89.4549 103.182 89.4661C99.4479 89.6719 96.1815 91.4715 94.0053 94.1671C92.8178 88.2888 87.594 83.9679 81.4791 84.02C81.28 84.021 81.0799 84.0268 80.8788 84.038C76.1277 84.2999 72.1338 87.1418 70.1795 91.1266C68.0992 86.5102 63.3484 83.4033 57.9808 83.6701C52.1881 83.9598 47.502 88.0872 46.256 93.4631C43.9517 91.0897 40.7354 89.6219 37.2067 89.6101C37.2045 89.6102 37.201 89.6097 37.201 89.6097C36.975 89.6093 36.7477 89.614 36.5194 89.6253C29.5245 89.9726 24.1333 95.9193 24.4807 102.909L25.0171 113.698C18.0947 112.888 11.1888 116.674 8.35425 123.414C-0.754306 147.611 2.96221 174.745 18.202 195.601C22.9083 204.141 29.8607 211.252 38.2481 216.159C39.9885 217.279 41.2785 218.933 41.9308 220.839L41.1268 512.597C42.0539 530.287 73.8466 543.004 91.5583 542.076C91.8589 542.06 92.1612 542.039 92.4639 542.015C92.6378 542.001 92.8158 541.984 92.9924 541.968C93.09 541.958 93.1874 541.95 93.2857 541.94C103.775 540.894 119.672 535.23 124.842 527.708C123.161 528.603 121.391 529.358 119.547 529.954C126.324 523.909 130.879 516.146 130.448 507.916L106.1 205.964C106.085 205.673 106.066 205.383 106.043 205.094C114.601 195.318 119.666 182.44 119.347 168.433L119.326 152.741C119.289 151.133 119.178 149.544 119.003 147.975C119.038 147.468 119.047 146.955 119.019 146.434L119.018 146.401Z" fill="#232586"/>
<path fill-rule="evenodd" clip-rule="evenodd" d="M28.4679 178.248L28.9665 178.875C34.727 185.031 44.3644 185.336 50.49 179.553C56.6161 173.773 56.9085 164.096 51.1503 157.942L36.4743 142.261L44.8158 120.185C47.7993 112.293 43.842 103.46 35.9791 100.459C28.115 97.4592 19.3238 101.424 16.3426 109.318C8.45829 132.862 13.0252 158.825 28.4679 178.248Z" fill="#EA9975"/>
<path fill-rule="evenodd" clip-rule="evenodd" d="M74.9795 202.761C103.164 201.134 124.683 176.874 123.042 148.568L122.496 133.617C120.852 105.311 96.6782 83.6867 68.4911 85.3154C40.3067 86.942 18.7887 111.202 20.4296 139.508L20.9773 154.456C22.618 182.765 46.7968 204.389 74.9795 202.761Z" fill="#FBC399"/>
<mask id="mask0_23_8254" style="mask-type:luminance" maskUnits="userSpaceOnUse" x="32" y="153" width="116" height="357">
<path d="M32.6279 160.985L117.122 153.593L147.615 502.125L63.1205 509.518L32.6279 160.985Z" fill="#FBC399"/>
</mask>
<path fill-rule="evenodd" clip-rule="evenodd" d="M51.0755 190.07L60.4551 479.052C61.9271 495.876 92.4842 506.949 109.239 505.483C125.993 504.017 146.422 488.484 144.95 471.659L111.748 184.762C110.276 167.936 95.5009 155.485 78.7462 156.951C61.9916 158.416 49.6033 173.244 51.0755 190.07Z" fill="#FBC399"/>
<mask id="mask1_23_8254" style="mask-type:luminance" maskUnits="userSpaceOnUse" x="19" y="131" width="123" height="380">
<path d="M19.417 139.597L108.898 131.769L141.348 502.674L51.867 510.502L19.417 139.597Z" fill="#EA9975"/>
</mask>
<g mask="url(#mask1_23_8254)">
<path fill-rule="evenodd" clip-rule="evenodd" d="M55.0954 193.313C59.3462 195.229 61.5297 200.065 61.6735 204.741L70.9005 468.984C72.3724 485.808 110.97 496.175 127.724 494.709C132.316 494.307 136.56 492.875 140.3 490.701C135.391 498.452 119.059 504.624 109.239 505.483C92.4839 506.949 61.9268 495.876 60.4548 479.052L51.9848 203.812C51.8911 200.761 50.1778 198.008 47.5116 196.541C32.5677 188.32 18.6302 173.282 20.4295 139.509C20.4295 139.509 18.6828 176.902 55.0954 193.313Z" fill="#EA9975"/>
</g>
<path fill-rule="evenodd" clip-rule="evenodd" d="M32.2053 124.911C33.5668 131.426 39.923 135.612 46.4191 134.267C52.9233 132.917 57.1042 126.527 55.7565 119.995L47.0108 77.6126C47.0088 77.6035 35.5292 22.6695 35.5275 22.6603C34.1655 16.1434 27.8093 11.9569 21.3144 13.3026C14.8091 14.6524 10.6293 21.0422 11.9767 27.574L32.1987 124.88C32.2006 124.889 32.2031 124.9 32.2053 124.911Z" fill="#FBC399"/>
<path fill-rule="evenodd" clip-rule="evenodd" d="M16.4799 26.6281C16.4799 26.6281 33.5664 131.426 32.2049 124.911C32.2027 124.9 32.2002 124.889 32.1983 124.88L11.9763 27.5738C10.6289 21.0421 14.8087 14.6523 21.314 13.3024C22.072 13.1454 22.8284 13.0702 23.5753 13.0597C18.3877 15.2519 15.2943 20.8819 16.4799 26.6281Z" fill="#EA9975"/>
<path fill-rule="evenodd" clip-rule="evenodd" d="M72.8574 82.4976L72.8601 82.529L76.7138 125.305C77.3135 131.95 83.1619 136.851 89.7777 136.256C96.3834 135.66 101.256 129.807 100.676 123.179L100.673 123.145L96.8195 80.3713C96.2198 73.7265 90.3712 68.8231 83.7556 69.4199C77.1498 70.016 72.2773 75.867 72.8574 82.4976Z" fill="#FBC399"/>
<path fill-rule="evenodd" clip-rule="evenodd" d="M79.9479 81.9279C79.9459 81.939 79.9469 81.9166 79.9479 81.9279C79.9479 81.9279 77.5117 106.325 77.4303 115.475L75.8094 116.239L72.8601 82.5291L72.8574 82.4977C72.2772 75.8668 77.1483 69.9981 83.7556 69.4201C87.0925 69.1281 87.8599 69.9056 88.5928 69.9762C83.1038 71.4942 81.0054 75.9653 79.9479 81.9279Z" fill="#EA9975"/>
<path fill-rule="evenodd" clip-rule="evenodd" d="M53.373 115.699C53.4476 122.355 58.8732 127.701 65.5068 127.65C72.1492 127.596 77.4876 122.144 77.4301 115.475L77.0544 72.1995C77.0542 72.1905 76.4262 16.0712 76.426 16.0622C76.3516 9.40455 70.926 4.05793 64.2939 4.10964C57.65 4.16358 52.3127 9.61475 52.3702 16.2841L53.3727 115.667C53.3728 115.677 53.3729 115.688 53.373 115.699Z" fill="#FBC399"/>
<mask id="mask2_23_8254" style="mask-type:luminance" maskUnits="userSpaceOnUse" x="93" y="72" width="31" height="70">
<path d="M93.123 74.9053L117.198 72.799L123.047 139.65L98.9718 141.757L93.123 74.9053Z" fill="#FBC399"/>
</mask>
<path fill-rule="evenodd" clip-rule="evenodd" d="M94.1759 86.9394L94.1787 86.9711L98.0322 129.745C98.6318 136.389 104.48 141.293 111.096 140.696C117.702 140.1 122.574 134.249 121.994 127.618L121.992 127.587L118.138 84.8111C117.538 78.1663 111.69 73.2649 105.074 73.8597C98.4682 74.4557 93.5958 80.3089 94.1759 86.9394Z" fill="#FBC399"/>
<path fill-rule="evenodd" clip-rule="evenodd" d="M98.5425 86.5575L98.5453 86.5891C98.5453 86.5891 97.5853 124.428 96.986 117.783L94.1787 86.9712L94.1759 86.9395C93.5958 80.3089 98.4685 74.4558 105.074 73.8597C105.833 73.7912 106.581 73.8033 107.314 73.876C101.825 75.3939 98.0267 80.6625 98.5425 86.5575Z" fill="#EA9975"/>
<path fill-rule="evenodd" clip-rule="evenodd" d="M56.9715 16.2356C56.9715 16.2356 53.1006 88.6983 53.1007 88.6892L52.3702 16.2841C52.3127 9.61476 57.65 4.16359 64.2936 4.10967C65.0678 4.1037 65.8244 4.17762 66.559 4.31283C61.0455 5.45059 56.9206 10.3687 56.9715 16.2356Z" fill="#EA9975"/>
<path d="M27.7593 16.2391L30.4414 27.5624C30.7416 28.8026 30.6843 30.1024 30.276 31.3106C28.8998 35.3835 24.12 37.1257 20.4586 34.889L19.7742 34.4707" stroke="#EA9975" stroke-width="1.8" stroke-linecap="round"/>
<path d="M71.3303 9.76891L71.8186 21.3962C71.8782 22.6707 71.5757 23.9356 70.9459 25.0436C68.823 28.7786 63.7996 29.5755 60.6286 26.6806L60.0357 26.1391" stroke="#EA9975" stroke-width="1.8" stroke-linecap="round"/>
<path d="M93.6416 202.243L98.561 208.53" stroke="#EA9975" stroke-width="1.8" stroke-linecap="round"/>
<path d="M72.2355 193.7L71.5117 201.659" stroke="#EA9975" stroke-width="1.8" stroke-linecap="round"/>
<path d="M82.4609 214.117L84.2302 221.911" stroke="#EA9975" stroke-width="1.8" stroke-linecap="round"/>
<path d="M102.481 189.516L104.251 197.309" stroke="#EA9975" stroke-width="1.8" stroke-linecap="round"/>
<path d="M100.376 265.777L102.145 273.572" stroke="#EA9975" stroke-width="1.8" stroke-linecap="round"/>
<path d="M98.6426 337.813L100.412 345.607" stroke="#EA9975" stroke-width="1.8" stroke-linecap="round"/>
<path d="M105.772 292.741L108.736 300.161" stroke="#EA9975" stroke-width="1.8" stroke-linecap="round"/>
<path d="M115.315 278.086L117.085 285.88" stroke="#EA9975" stroke-width="1.8" stroke-linecap="round"/>
<path d="M92.1062 240.603L91.1036 248.531" stroke="#EA9975" stroke-width="1.8" stroke-linecap="round"/>
<path d="M89.4402 281.938L88.4376 289.867" stroke="#EA9975" stroke-width="1.8" stroke-linecap="round"/>
<path d="M84.1374 326.22L83.1348 334.148" stroke="#EA9975" stroke-width="1.8" stroke-linecap="round"/>
<path d="M96.2705 309.102L97.7652 316.953" stroke="#EA9975" stroke-width="1.8" stroke-linecap="round"/>
<path d="M71.4377 224.598L67.5835 231.589" stroke="#EA9975" stroke-width="1.8" stroke-linecap="round"/>
<path d="M59.9337 214.328L56.0796 221.318" stroke="#EA9975" stroke-width="1.8" stroke-linecap="round"/>
<path d="M77.1077 262.59L74.7037 270.207" stroke="#EA9975" stroke-width="1.8" stroke-linecap="round"/>
<path d="M73.9051 288.088L70.8488 295.465" stroke="#EA9975" stroke-width="1.8" stroke-linecap="round"/>
<path d="M76.5343 242.275L72.6802 249.265" stroke="#EA9975" stroke-width="1.8" stroke-linecap="round"/>
<path d="M78.6027 308.413L74.7485 315.403" stroke="#EA9975" stroke-width="1.8" stroke-linecap="round"/>
<path d="M62.5334 314.633L58.6792 321.624" stroke="#EA9975" stroke-width="1.8" stroke-linecap="round"/>
<path d="M60.6535 244.8L54.3833 249.719" stroke="#EA9975" stroke-width="1.8" stroke-linecap="round"/>
<path d="M102.765 224.926L107.106 231.629" stroke="#EA9975" stroke-width="1.8" stroke-linecap="round"/>
<path d="M107.075 250.92L111.416 257.622" stroke="#EA9975" stroke-width="1.8" stroke-linecap="round"/>
<path d="M115.319 311.876L119.66 318.579" stroke="#EA9975" stroke-width="1.8" stroke-linecap="round"/>
<path d="M115.678 331.301L120.597 337.588" stroke="#EA9975" stroke-width="1.8" stroke-linecap="round"/>
<path d="M116.561 345.921L118.33 353.715" stroke="#EA9975" stroke-width="1.8" stroke-linecap="round"/>
</svg>
