<svg width="155" height="379" viewBox="0 0 155 379" fill="none" xmlns="http://www.w3.org/2000/svg">
<g clip-path="url(#clip0_1_2)">
<path opacity="0.391695" fill-rule="evenodd" clip-rule="evenodd" d="M119.018 146.401L116.543 101.42C116.169 94.6349 110.516 89.3938 103.784 89.448C103.584 89.449 103.383 89.4548 103.182 89.466C99.4479 89.6718 96.1815 91.4714 94.0053 94.167C92.8178 88.2887 87.594 83.9678 81.4791 84.0199C81.28 84.0209 81.0799 84.0267 80.8788 84.0379C76.1277 84.2998 72.1338 87.1417 70.1795 91.1265C68.0992 86.5101 63.3484 83.4032 57.9808 83.67C52.1881 83.9597 47.502 88.0871 46.256 93.463C43.9517 91.0896 40.7354 89.6218 37.2067 89.61C37.2045 89.6101 37.201 89.6096 37.201 89.6096C36.975 89.6092 34.5 84.5 27 77C20.0051 77.3473 3 78.667 5.5 94.167L9.5 132.5C0.391443 156.697 3.1573 182.427 17 198C25 207 29.8607 211.252 38.2481 216.159C39.9885 217.279 41.2785 218.933 41.9308 220.839L41.1268 512.597C42.0539 530.287 73.8466 543.004 91.5583 542.076C91.8589 542.06 92.1612 542.039 92.4639 542.015C92.6378 542.001 92.8158 541.984 92.9924 541.968C93.09 541.958 93.1874 541.95 93.2857 541.94C103.775 540.894 119.672 535.23 124.842 527.708C123.161 528.603 121.391 529.358 119.547 529.954C126.324 523.909 130.879 516.146 130.448 507.916L106.1 205.964C106.085 205.673 106.066 205.383 106.043 205.094C114.601 195.318 94.0053 186.5 119.347 168.433L119.326 152.741C119.289 151.133 119.178 149.544 119.003 147.975C119.038 147.468 119.047 146.955 119.019 146.434L119.018 146.401Z" fill="#232586"/>
<path fill-rule="evenodd" clip-rule="evenodd" d="M74.9795 202.761C103.164 201.134 124.683 176.874 123.042 148.568L122.496 133.617C120.852 105.311 96.6782 83.6867 68.4911 85.3154C40.3067 86.942 18.7887 111.202 20.4296 139.508L20.9773 154.456C22.618 182.765 46.7968 204.389 74.9795 202.761Z" fill="#FBC399"/>
<path fill-rule="evenodd" clip-rule="evenodd" d="M51.0755 190.07L60.4551 479.052C61.9271 495.876 92.4842 506.949 109.239 505.483C125.993 504.017 146.422 488.484 144.95 471.659L111.748 184.762C110.276 167.936 95.5009 155.485 78.7462 156.951C61.9916 158.416 49.6033 173.244 51.0755 190.07Z" fill="#FBC399"/>
<path fill-rule="evenodd" clip-rule="evenodd" d="M54.0954 193.313C58.3462 195.229 60.5297 200.065 60.6735 204.741L69.9005 468.984C71.3724 485.808 109.97 496.175 126.724 494.709C131.316 494.307 135.56 492.875 139.3 490.701C134.391 498.452 118.059 504.624 108.239 505.483C91.4839 506.949 60.9268 495.876 59.4548 479.052L50.9848 203.812C50.8911 200.761 49.1778 198.008 46.5116 196.541C31.5677 188.32 18.7007 173.773 20.5 140C20.5 140 17.6828 176.902 54.0954 193.313Z" fill="#EA9975"/>
<path fill-rule="evenodd" clip-rule="evenodd" d="M21.0621 74.796C21.0621 74.796 26.0514 131.194 25.3894 126.532C25.3894 126.532 23.9142 128.342 23.9132 128.336C23.9132 128.336 15.4538 80.7327 15.7269 74.8663C16 69 22.5 67 22.5 67C22.5 67 25.6614 65.6775 29.5 66.5C36.5 68 35 69 35 69C35 69 20.4958 70.6864 21.0621 74.796Z" fill="#EA9975"/>
<path fill-rule="evenodd" clip-rule="evenodd" d="M57.373 115.699C57.4476 122.355 62.8732 127.701 69.5068 127.65C76.1492 127.596 81.4876 122.144 81.4301 115.475L81.0544 72.1995C81.0542 72.1905 80.4262 16.0712 80.426 16.0622C80.3516 9.40455 74.926 4.05793 68.2939 4.10964C61.65 4.16358 56.3127 9.61475 56.3702 16.2841L57.3727 115.667C57.3728 115.677 57.3729 115.688 57.373 115.699Z" fill="#FBC399"/>
<path fill-rule="evenodd" clip-rule="evenodd" d="M60.9715 16.2356C60.9715 16.2356 60.9715 114 60.9715 110.5L56.3702 16.2841C56.3127 9.61475 61.65 4.16358 68.2936 4.10966C69.0678 4.10369 69.8244 4.17761 70.559 4.31282C65.0455 5.45058 60.9206 10.3687 60.9715 16.2356Z" fill="#EA9975"/>
<path fill-rule="evenodd" clip-rule="evenodd" d="M78.3212 123.683C78.3179 130.338 83.2677 135.739 89.3909 135.755C95.5223 135.767 100.509 130.371 100.528 123.701L100.65 80.426C100.65 80.4167 100.678 24.2961 100.678 24.2867C100.681 17.629 95.7315 12.2279 89.6093 12.213C83.477 12.2 78.4914 17.5968 78.4722 24.2661L78.3211 123.651C78.3211 123.66 78.3213 123.671 78.3212 123.683Z" fill="#FBC399"/>
<path fill-rule="evenodd" clip-rule="evenodd" d="M82.7194 24.2638C82.7194 24.2638 82.7161 114.656 82.7194 108L78.4719 24.2658C78.491 17.5966 83.4766 12.1998 89.609 12.2127C90.3235 12.2145 91.0211 12.296 91.6978 12.4389C86.5964 13.5207 82.7361 18.3966 82.7194 24.2638Z" fill="#EA9975"/>
<path fill-rule="evenodd" clip-rule="evenodd" d="M102.315 55.4008C102.315 55.4008 98.6146 114.149 98.8542 107.5C98.8542 107.5 98.5207 64 98.8542 55.2174C99.1877 46.4348 103.5 42.6036 110.5 43C109.954 42.8277 111.082 43.033 110.5 43C106.305 43.8581 102.538 49.5399 102.315 55.4008Z" fill="#EA9975"/>
<path d="M95.7988 19.4089L96.0784 31.0415C96.1148 32.3169 95.817 33.5773 95.2194 34.6761C93.2052 38.3802 88.5573 39.1051 85.673 36.1651L85.1339 35.6153" stroke="#EA9975" stroke-width="1.8" stroke-linecap="round"/>
<path fill-rule="evenodd" clip-rule="evenodd" d="M99.6371 154.271C99.5467 160.898 103.417 166.143 108.292 165.994C113.174 165.842 117.216 160.334 117.319 153.692L117.987 110.598C117.987 110.589 118.749 54.7061 118.75 54.6968C118.84 48.0673 114.97 42.8223 110.095 42.972C105.213 43.1239 101.172 48.6317 101.068 55.2731L99.6374 154.239C99.6373 154.248 99.6373 154.26 99.6371 154.271Z" fill="#FBC399"/>
<path d="M114.449 49.8891L114.731 61.1924C114.767 62.4316 114.516 63.658 114.006 64.7286C112.29 68.3379 108.301 69.0647 105.814 66.2214L105.349 65.6897" stroke="#EA9975" stroke-width="1.8" stroke-linecap="round"/>
<path d="M75.3303 9.76891L75.8186 21.3962C75.8782 22.6707 75.5757 23.9356 74.9459 25.0436C72.823 28.7786 67.7996 29.5755 64.6286 26.6806L64.0357 26.1391" stroke="#EA9975" stroke-width="1.8" stroke-linecap="round"/>
<path d="M93.6416 202.243L98.561 208.53" stroke="#EA9975" stroke-width="1.8" stroke-linecap="round"/>
<path d="M72.2355 193.7L71.5117 201.659" stroke="#EA9975" stroke-width="1.8" stroke-linecap="round"/>
<path d="M82.4609 214.117L84.2302 221.911" stroke="#EA9975" stroke-width="1.8" stroke-linecap="round"/>
<path d="M102.481 189.516L104.251 197.309" stroke="#EA9975" stroke-width="1.8" stroke-linecap="round"/>
<path d="M100.376 265.777L102.145 273.572" stroke="#EA9975" stroke-width="1.8" stroke-linecap="round"/>
<path d="M98.6426 337.813L100.412 345.607" stroke="#EA9975" stroke-width="1.8" stroke-linecap="round"/>
<path d="M105.772 292.741L108.736 300.161" stroke="#EA9975" stroke-width="1.8" stroke-linecap="round"/>
<path d="M115.315 278.086L117.085 285.88" stroke="#EA9975" stroke-width="1.8" stroke-linecap="round"/>
<path d="M92.1062 240.603L91.1036 248.531" stroke="#EA9975" stroke-width="1.8" stroke-linecap="round"/>
<path d="M89.4402 281.938L88.4376 289.867" stroke="#EA9975" stroke-width="1.8" stroke-linecap="round"/>
<path d="M84.1374 326.22L83.1348 334.148" stroke="#EA9975" stroke-width="1.8" stroke-linecap="round"/>
<path d="M96.2705 309.102L97.7652 316.953" stroke="#EA9975" stroke-width="1.8" stroke-linecap="round"/>
<path d="M71.4377 224.598L67.5835 231.589" stroke="#EA9975" stroke-width="1.8" stroke-linecap="round"/>
<path d="M59.9337 214.328L56.0796 221.318" stroke="#EA9975" stroke-width="1.8" stroke-linecap="round"/>
<path d="M77.1077 262.59L74.7037 270.207" stroke="#EA9975" stroke-width="1.8" stroke-linecap="round"/>
<path d="M73.9051 288.088L70.8488 295.465" stroke="#EA9975" stroke-width="1.8" stroke-linecap="round"/>
<path d="M76.5343 242.275L72.6802 249.265" stroke="#EA9975" stroke-width="1.8" stroke-linecap="round"/>
<path d="M78.6027 308.413L74.7485 315.403" stroke="#EA9975" stroke-width="1.8" stroke-linecap="round"/>
<path d="M62.5334 314.633L58.6792 321.624" stroke="#EA9975" stroke-width="1.8" stroke-linecap="round"/>
<path d="M60.6535 244.8L54.3833 249.719" stroke="#EA9975" stroke-width="1.8" stroke-linecap="round"/>
<path d="M102.765 224.926L107.106 231.629" stroke="#EA9975" stroke-width="1.8" stroke-linecap="round"/>
<path d="M107.075 250.92L111.416 257.622" stroke="#EA9975" stroke-width="1.8" stroke-linecap="round"/>
<path d="M115.319 311.876L119.66 318.579" stroke="#EA9975" stroke-width="1.8" stroke-linecap="round"/>
<path d="M115.678 331.301L120.597 337.588" stroke="#EA9975" stroke-width="1.8" stroke-linecap="round"/>
<path d="M116.561 345.921L118.33 353.715" stroke="#EA9975" stroke-width="1.8" stroke-linecap="round"/>
<path fill-rule="evenodd" clip-rule="evenodd" d="M25.5636 141.777C26.0818 146.241 31.4493 149.773 37.5669 149.672C43.6926 149.57 48.2509 145.86 47.7473 141.387L44.4785 112.363C44.4777 112.357 40.1087 74.72 40.1081 74.7137C39.5897 70.2488 34.2223 66.7165 28.1056 66.8176C21.9789 66.9202 17.4217 70.6299 17.925 75.1029L25.561 141.756C25.5617 141.762 25.5628 141.77 25.5636 141.777Z" fill="#FBC399"/>
<path fill-rule="evenodd" clip-rule="evenodd" d="M25.5636 141.777C26.0818 146.241 31.4493 149.773 37.5669 149.672C43.6926 149.57 48.2509 145.86 47.7473 141.387L44.4785 112.363C44.4777 112.357 40.1087 74.72 40.1081 74.7137C39.5897 70.2488 34.2223 66.7165 28.1056 66.8176C21.9789 66.9202 17.4217 70.6299 17.925 75.1029L25.561 141.756C25.5617 141.762 25.5628 141.77 25.5636 141.777Z" fill="#FBC399"/>
<path fill-rule="evenodd" clip-rule="evenodd" d="M40.0773 32.0944C40.0773 32.0944 42.5154 161.19 42.4493 154.528L36.5 31C37 23 42.3823 19.4644 49 19.5002C49.771 19.5047 52.5 20 49.6424 20.2916C44.1487 21.3554 40.034 26.2216 40.0773 32.0944Z" fill="#EA9975"/>
<path fill-rule="evenodd" clip-rule="evenodd" d="M41.7045 126.065C41.8965 132.37 46.3608 137.115 51.6883 136.669C57.0228 136.22 61.2031 130.732 61.0244 124.412L59.8636 83.4034C59.8632 83.3946 58.2447 30.2232 58.2446 30.2143C58.0525 23.9065 53.5883 19.1617 48.2616 19.608C42.9262 20.0569 38.7469 25.5448 38.9254 31.8648L41.7035 126.034C41.7038 126.043 41.7042 126.054 41.7045 126.065Z" fill="#FBC399"/>
<path fill-rule="evenodd" clip-rule="evenodd" d="M41.7045 126.065C41.8965 132.37 46.3608 137.115 51.6883 136.669C57.0228 136.22 61.2031 130.732 61.0244 124.412L59.8636 83.4034C59.8632 83.3946 58.2447 30.2232 58.2446 30.2143C58.0525 23.9065 53.5883 19.1617 48.2616 19.608C42.9262 20.0569 38.7469 25.5448 38.9254 31.8648L41.7035 126.034C41.7038 126.043 41.7042 126.054 41.7045 126.065Z" fill="#FBC399"/>
<path d="M34.9019 72.6659L36.2002 84.3135C36.3496 85.5903 36.0917 86.8659 35.4564 87.9919C33.3149 91.7876 27.7287 92.7062 23.9827 89.8786L23.2825 89.3498" stroke="#EA9975" stroke-width="1.8" stroke-linecap="round"/>
<path d="M52.7219 23.6721L53.1823 34.6486C53.2385 35.8519 52.9647 37.0466 52.3926 38.0935C50.464 41.6229 45.8897 42.3827 42.9973 39.6542L42.4566 39.144" stroke="#EA9975" stroke-width="1.8" stroke-linecap="round"/>
</g>
<defs>
<clipPath id="clip0_1_2">
<rect width="155" height="379" fill="white"/>
</clipPath>
</defs>
</svg>
