<svg width="182" height="529" viewBox="0 0 182 529" fill="none" xmlns="http://www.w3.org/2000/svg">
<mask id="mask0_1_66" style="mask-type:luminance" maskUnits="userSpaceOnUse" x="13" y="0" width="155" height="488">
<path d="M168 0H13V488H168V0Z" fill="white"/>
</mask>
<g mask="url(#mask0_1_66)">
<path opacity="0.391695" fill-rule="evenodd" clip-rule="evenodd" d="M132.018 146.401L129.543 101.42C129.169 94.6349 123.516 89.3938 116.784 89.448C116.584 89.449 116.383 89.4548 116.182 89.466C112.448 89.6718 109.182 91.4714 107.005 94.167C105.818 88.2887 100.594 83.9678 94.4791 84.0199C94.28 84.0209 94.0799 84.0267 93.8788 84.0379C89.1277 84.2998 85.1338 87.1417 83.1795 91.1265C81.0992 86.5101 76.3484 83.4032 70.9808 83.67C65.1881 83.9597 60.502 88.0871 59.256 93.463C56.9517 91.0896 53.7354 89.6218 50.2067 89.61C50.2045 89.6101 50.201 89.6096 50.201 89.6096C49.975 89.6092 47.5 84.5 40 77C33.0051 77.3473 16 78.667 18.5 94.167L22.5 132.5C13.3914 156.697 16.1573 182.427 30 198C38 207 42.8607 211.252 51.2481 216.159C52.9885 217.279 54.2785 218.933 54.9308 220.839L54.1268 512.597C55.0539 530.287 86.8466 543.004 104.558 542.076C104.859 542.06 105.161 542.039 105.464 542.015C105.638 542.001 105.816 541.984 105.992 541.968C106.09 541.958 106.187 541.95 106.286 541.94C116.775 540.894 132.672 535.23 137.842 527.708C136.161 528.603 134.391 529.358 132.547 529.954C139.324 523.909 143.879 516.146 143.448 507.916L119.1 205.964C119.085 205.673 119.066 205.383 119.043 205.094C127.601 195.318 107.005 186.5 132.347 168.433L132.326 152.741C132.289 151.133 132.178 149.544 132.003 147.975C132.038 147.468 132.047 146.955 132.019 146.434L132.018 146.401Z" fill="#232586"/>
<path fill-rule="evenodd" clip-rule="evenodd" d="M87.9795 202.761C116.164 201.134 137.683 176.874 136.042 148.568L135.496 133.617C133.852 105.311 109.678 83.6867 81.4911 85.3154C53.3067 86.942 31.7887 111.202 33.4296 139.508L33.9773 154.456C35.618 182.765 59.7968 204.389 87.9795 202.761Z" fill="#FBC399"/>
<path fill-rule="evenodd" clip-rule="evenodd" d="M64.1187 193.593L73.4914 511.757C74.9624 530.28 105.497 542.471 122.24 540.857C138.982 539.243 159.396 522.141 157.925 503.617L124.747 187.749C123.276 169.223 108.512 155.515 91.7692 157.129C75.0268 158.742 62.6475 175.067 64.1187 193.593Z" fill="#FBC399"/>
<path fill-rule="evenodd" clip-rule="evenodd" d="M64.1187 193.974L73.4914 515.452C74.9624 534.168 105.497 546.486 122.24 544.855C138.982 543.225 159.396 525.945 157.925 507.228L124.747 188.069C123.276 169.351 108.512 155.5 91.7692 157.13C75.0268 158.76 62.6475 175.256 64.1187 193.974Z" fill="#FBC399"/>
<path fill-rule="evenodd" clip-rule="evenodd" d="M66.7729 199.785C71.0248 201.934 73.2089 207.357 73.3527 212.601L82.5822 508.924C84.0545 527.791 122.662 539.416 139.421 537.772C144.014 537.321 148.259 535.716 152 533.278C147.09 541.97 130.753 548.891 120.931 549.854C104.171 551.498 73.6061 539.081 72.1337 520.214L63.6615 211.559C63.5678 208.138 61.854 205.05 59.1871 203.405C44.2393 194.186 31.3689 177.873 33.1686 140C33.1686 140 30.3507 181.382 66.7729 199.785Z" fill="#EA9975"/>
<path fill-rule="evenodd" clip-rule="evenodd" d="M34.0621 74.796C34.0621 74.796 39.0514 131.194 38.3894 126.532C38.3894 126.532 36.9142 128.342 36.9132 128.336C36.9132 128.336 28.4538 80.7327 28.7269 74.8663C29 69 35.5 67 35.5 67C35.5 67 38.6614 65.6775 42.5 66.5C49.5 68 48 69 48 69C48 69 33.4958 70.6864 34.0621 74.796Z" fill="#EA9975"/>
<path fill-rule="evenodd" clip-rule="evenodd" d="M70.373 115.699C70.4476 122.355 75.8732 127.701 82.5068 127.65C89.1492 127.596 94.4876 122.144 94.4301 115.475L94.0544 72.1995C94.0542 72.1905 93.4262 16.0712 93.426 16.0622C93.3516 9.40455 87.926 4.05793 81.2939 4.10964C74.65 4.16358 69.3127 9.61475 69.3702 16.2841L70.3727 115.667C70.3728 115.677 70.3729 115.688 70.373 115.699Z" fill="#FBC399"/>
<path fill-rule="evenodd" clip-rule="evenodd" d="M73.9715 16.2356C73.9715 16.2356 73.9715 114 73.9715 110.5L69.3702 16.2841C69.3127 9.61475 74.65 4.16358 81.2936 4.10966C82.0678 4.10369 82.8244 4.17761 83.559 4.31282C78.0455 5.45058 73.9206 10.3687 73.9715 16.2356Z" fill="#EA9975"/>
<path fill-rule="evenodd" clip-rule="evenodd" d="M91.3212 123.683C91.3179 130.338 96.2677 135.739 102.391 135.755C108.522 135.767 113.509 130.371 113.528 123.701L113.65 80.426C113.65 80.4167 113.678 24.2961 113.678 24.2867C113.681 17.629 108.732 12.2279 102.609 12.213C96.477 12.2 91.4914 17.5968 91.4722 24.2661L91.3211 123.651C91.3211 123.66 91.3213 123.671 91.3212 123.683Z" fill="#FBC399"/>
<path fill-rule="evenodd" clip-rule="evenodd" d="M95.7194 24.2638C95.7194 24.2638 95.7161 114.656 95.7194 108L91.4719 24.2658C91.491 17.5966 96.4766 12.1998 102.609 12.2127C103.323 12.2145 104.021 12.296 104.698 12.4389C99.5964 13.5207 95.7361 18.3966 95.7194 24.2638Z" fill="#EA9975"/>
<path fill-rule="evenodd" clip-rule="evenodd" d="M115.315 55.4008C115.315 55.4008 111.615 114.149 111.854 107.5C111.854 107.5 111.521 64 111.854 55.2174C112.188 46.4348 116.5 42.6036 123.5 43C124.082 43.033 122.954 42.8277 123.5 43C119.305 43.8581 115.538 49.5399 115.315 55.4008Z" fill="#EA9975"/>
<path d="M108.799 19.4089L109.078 31.0415C109.115 32.3169 108.817 33.5773 108.219 34.6761C106.205 38.3802 101.557 39.1051 98.673 36.1651L98.1339 35.6153" stroke="#EA9975" stroke-width="1.8" stroke-linecap="round"/>
<path fill-rule="evenodd" clip-rule="evenodd" d="M112.637 154.271C112.547 160.898 116.417 166.143 121.292 165.994C126.174 165.842 130.216 160.334 130.319 153.692L130.987 110.598C130.987 110.589 131.749 54.7061 131.75 54.6968C131.84 48.0673 127.97 42.8223 123.095 42.972C118.213 43.1239 114.172 48.6317 114.068 55.2731L112.637 154.239C112.637 154.248 112.637 154.26 112.637 154.271Z" fill="#FBC399"/>
<path d="M127.449 49.8891L127.731 61.1924C127.767 62.4316 127.516 63.658 127.006 64.7286C125.29 68.3379 121.301 69.0647 118.814 66.2214L118.349 65.6897" stroke="#EA9975" stroke-width="1.8" stroke-linecap="round"/>
<path d="M88.3303 9.76891L88.8186 21.3962C88.8782 22.6707 88.5757 23.9356 87.9459 25.0436C85.823 28.7786 80.7996 29.5755 77.6286 26.6806L77.0357 26.1391" stroke="#EA9975" stroke-width="1.8" stroke-linecap="round"/>
<path d="M106.642 202.243L111.561 208.53" stroke="#EA9975" stroke-width="1.8" stroke-linecap="round"/>
<path d="M85.2355 193.7L84.5117 201.659" stroke="#EA9975" stroke-width="1.8" stroke-linecap="round"/>
<path d="M95.4609 214.117L97.2302 221.911" stroke="#EA9975" stroke-width="1.8" stroke-linecap="round"/>
<path d="M115.481 189.516L117.251 197.309" stroke="#EA9975" stroke-width="1.8" stroke-linecap="round"/>
<path d="M113.376 265.777L115.145 273.572" stroke="#EA9975" stroke-width="1.8" stroke-linecap="round"/>
<path d="M111.643 337.813L113.412 345.607" stroke="#EA9975" stroke-width="1.8" stroke-linecap="round"/>
<path d="M118.772 292.741L121.736 300.161" stroke="#EA9975" stroke-width="1.8" stroke-linecap="round"/>
<path d="M128.315 278.086L130.085 285.88" stroke="#EA9975" stroke-width="1.8" stroke-linecap="round"/>
<path d="M105.106 240.603L104.104 248.531" stroke="#EA9975" stroke-width="1.8" stroke-linecap="round"/>
<path d="M102.44 281.938L101.438 289.867" stroke="#EA9975" stroke-width="1.8" stroke-linecap="round"/>
<path d="M97.1374 326.22L96.1348 334.148" stroke="#EA9975" stroke-width="1.8" stroke-linecap="round"/>
<path d="M109.271 309.102L110.765 316.953" stroke="#EA9975" stroke-width="1.8" stroke-linecap="round"/>
<path d="M84.4377 224.598L80.5835 231.589" stroke="#EA9975" stroke-width="1.8" stroke-linecap="round"/>
<path d="M72.9337 214.328L69.0796 221.318" stroke="#EA9975" stroke-width="1.8" stroke-linecap="round"/>
<path d="M90.1077 262.59L87.7037 270.207" stroke="#EA9975" stroke-width="1.8" stroke-linecap="round"/>
<path d="M86.9051 288.088L83.8488 295.465" stroke="#EA9975" stroke-width="1.8" stroke-linecap="round"/>
<path d="M89.5343 242.275L85.6802 249.265" stroke="#EA9975" stroke-width="1.8" stroke-linecap="round"/>
<path d="M91.6027 308.413L87.7485 315.403" stroke="#EA9975" stroke-width="1.8" stroke-linecap="round"/>
<path d="M75.5334 314.633L71.6792 321.624" stroke="#EA9975" stroke-width="1.8" stroke-linecap="round"/>
<path d="M73.6535 244.8L67.3833 249.719" stroke="#EA9975" stroke-width="1.8" stroke-linecap="round"/>
<path d="M115.765 224.926L120.106 231.629" stroke="#EA9975" stroke-width="1.8" stroke-linecap="round"/>
<path d="M120.075 250.92L124.416 257.622" stroke="#EA9975" stroke-width="1.8" stroke-linecap="round"/>
<path d="M128.319 311.876L132.66 318.579" stroke="#EA9975" stroke-width="1.8" stroke-linecap="round"/>
<path d="M128.678 331.301L133.597 337.588" stroke="#EA9975" stroke-width="1.8" stroke-linecap="round"/>
<path d="M129.561 345.921L131.33 353.715" stroke="#EA9975" stroke-width="1.8" stroke-linecap="round"/>
<path d="M106 413L107.769 420.794" stroke="#EA9975" stroke-width="1.8" stroke-linecap="round"/>
<path d="M122.923 369.803L125.887 377.223" stroke="#EA9975" stroke-width="1.8" stroke-linecap="round"/>
<path d="M104.003 365L103 372.929" stroke="#EA9975" stroke-width="1.8" stroke-linecap="round"/>
<path d="M92.0026 402L91 409.928" stroke="#EA9975" stroke-width="1.8" stroke-linecap="round"/>
<path d="M112 388L113.495 395.851" stroke="#EA9975" stroke-width="1.8" stroke-linecap="round"/>
<path d="M91.0563 348L88 355.377" stroke="#EA9975" stroke-width="1.8" stroke-linecap="round"/>
<path d="M90.8542 379L87 385.99" stroke="#EA9975" stroke-width="1.8" stroke-linecap="round"/>
<path d="M132.47 388.938L136.811 395.641" stroke="#EA9975" stroke-width="1.8" stroke-linecap="round"/>
<path d="M132.829 408.363L137.748 414.65" stroke="#EA9975" stroke-width="1.8" stroke-linecap="round"/>
<path d="M142 431L143.769 438.794" stroke="#EA9975" stroke-width="1.8" stroke-linecap="round"/>
<path d="M112 480L113.769 487.794" stroke="#EA9975" stroke-width="1.8" stroke-linecap="round"/>
<path d="M121.923 425.803L124.887 433.223" stroke="#EA9975" stroke-width="1.8" stroke-linecap="round"/>
<path d="M110.003 437L109 444.929" stroke="#EA9975" stroke-width="1.8" stroke-linecap="round"/>
<path d="M91.0026 474L90 481.928" stroke="#EA9975" stroke-width="1.8" stroke-linecap="round"/>
<path d="M116 458L117.495 465.851" stroke="#EA9975" stroke-width="1.8" stroke-linecap="round"/>
<path d="M94.0563 427L91 434.377" stroke="#EA9975" stroke-width="1.8" stroke-linecap="round"/>
<path d="M96.8542 453L93 459.99" stroke="#EA9975" stroke-width="1.8" stroke-linecap="round"/>
<path d="M131.47 444.938L135.811 451.641" stroke="#EA9975" stroke-width="1.8" stroke-linecap="round"/>
<path d="M143 466L147.919 472.287" stroke="#EA9975" stroke-width="1.8" stroke-linecap="round"/>
<path d="M132.712 478.983L134.481 486.777" stroke="#EA9975" stroke-width="1.8" stroke-linecap="round"/>
<path fill-rule="evenodd" clip-rule="evenodd" d="M38.5636 141.777C39.0818 146.241 44.4493 149.773 50.5669 149.672C56.6926 149.57 61.2509 145.86 60.7473 141.387L57.4785 112.363C57.4777 112.357 53.1087 74.72 53.1081 74.7137C52.5897 70.2488 47.2223 66.7165 41.1056 66.8176C34.9789 66.9202 30.4217 70.6299 30.925 75.1029L38.561 141.756C38.5617 141.762 38.5628 141.77 38.5636 141.777Z" fill="#FBC399"/>
<path fill-rule="evenodd" clip-rule="evenodd" d="M38.5636 141.777C39.0818 146.241 44.4493 149.773 50.5669 149.672C56.6926 149.57 61.2509 145.86 60.7473 141.387L57.4785 112.363C57.4777 112.357 53.1087 74.72 53.1081 74.7137C52.5897 70.2488 47.2223 66.7165 41.1056 66.8176C34.9789 66.9202 30.4217 70.6299 30.925 75.1029L38.561 141.756C38.5617 141.762 38.5628 141.77 38.5636 141.777Z" fill="#FBC399"/>
<path fill-rule="evenodd" clip-rule="evenodd" d="M53.0773 32.0944C53.0773 32.0944 55.5154 161.19 55.4493 154.528L49.5 31C50 23 55.3823 19.4644 62 19.5002C62.771 19.5047 65.5 20 62.6424 20.2916C57.1487 21.3554 53.034 26.2216 53.0773 32.0944Z" fill="#EA9975"/>
<path fill-rule="evenodd" clip-rule="evenodd" d="M54.7045 126.065C54.8965 132.37 59.3608 137.115 64.6883 136.669C70.0228 136.22 74.2031 130.732 74.0244 124.412L72.8636 83.4034C72.8632 83.3946 71.2447 30.2232 71.2446 30.2143C71.0525 23.9065 66.5883 19.1617 61.2616 19.608C55.9262 20.0569 51.7469 25.5448 51.9254 31.8648L54.7035 126.034C54.7038 126.043 54.7042 126.054 54.7045 126.065Z" fill="#FBC399"/>
<path fill-rule="evenodd" clip-rule="evenodd" d="M54.7045 126.065C54.8965 132.37 59.3608 137.115 64.6883 136.669C70.0228 136.22 74.2031 130.732 74.0244 124.412L72.8636 83.4034C72.8632 83.3946 71.2447 30.2232 71.2446 30.2143C71.0525 23.9065 66.5883 19.1617 61.2616 19.608C55.9262 20.0569 51.7469 25.5448 51.9254 31.8648L54.7035 126.034C54.7038 126.043 54.7042 126.054 54.7045 126.065Z" fill="#FBC399"/>
<path d="M47.9019 72.6659L49.2002 84.3135C49.3496 85.5903 49.0917 86.8659 48.4564 87.9919C46.3149 91.7876 40.7287 92.7062 36.9827 89.8786L36.2825 89.3498" stroke="#EA9975" stroke-width="1.8" stroke-linecap="round"/>
<path d="M65.7219 23.6721L66.1823 34.6486C66.2385 35.8519 65.9647 37.0466 65.3926 38.0935C63.464 41.6229 58.8897 42.3827 55.9973 39.6542L55.4566 39.144" stroke="#EA9975" stroke-width="1.8" stroke-linecap="round"/>
</g>
</svg>
