<svg width="182" height="529" viewBox="0 0 182 529" fill="none" xmlns="http://www.w3.org/2000/svg">
<g clip-path="url(#clip0_3_27)">
<path opacity="0.390485" fill-rule="evenodd" clip-rule="evenodd" d="M43.9811 376.812L47.5 428C48.5 435.547 54.5 439.5 61 439.5C69.5 439.5 71.9692 435.547 71.9692 435.547C71.9692 435.547 77 444.5 86.5 444C96 443.5 98.5 438 98.5 438C98.4999 438.011 105.014 442.581 111.5 441.5C123.5 439.5 124 430.5 124 430.5C124 430.5 128 437 139.5 435.5C147.658 434.436 153 428.227 153 420C153 416.5 152 410.5 152 410.5C159.5 407.5 165.443 402.5 167.5 398.5C176.5 381 173.958 346.488 157.954 323.281C152.752 312.567 145.069 305.304 136.866 300.015C136.02 299.458 135.16 298.922 134.285 298.407C132.338 297.147 130.895 295.286 130.165 293.144L130.207 276.127C136.215 272.259 135.315 270.173 130.223 269.473L130.248 259.538C134.942 257.351 141.598 253.036 141.647 249.889C141.72 245.089 137.286 243.19 130.288 243.261L130.972 -34.8847C129.93 -54.7741 94.3717 -69.0816 74.5647 -68.0435C74.2282 -68.0259 73.8899 -68.0082 73.5517 -67.9755C73.3576 -67.9604 73.1585 -67.9411 72.9607 -67.9226C72.8515 -67.9123 72.7425 -67.903 72.633 -67.8916C60.9032 -66.7185 43.126 -60.3561 37.3474 -51.9002C39.2269 -52.9068 41.2058 -53.7542 43.2675 -54.4238C35.6908 -47.6301 30.5999 -38.9027 31.0848 -29.6498L55.12 268.995C43.9442 275.649 40.5056 280.724 54.1581 279.745L55.9474 279.279L56.3185 283.889C43.9419 289.015 36.5346 294.878 41.2227 300.437C43.484 303.117 52.9411 302.621 57.7462 301.628L58.4078 309.848C58.425 310.175 58.447 310.501 58.4725 310.826C48.9049 321.815 43.2441 336.292 43.6063 352.041L43.6344 369.684C43.6762 371.491 43.8008 373.278 43.9964 375.042C43.9577 375.611 43.9485 376.189 43.9791 376.774L43.9811 376.812Z" fill="#232586"/>
<path fill-rule="evenodd" clip-rule="evenodd" d="M147.218 319.018L146.65 318.328C140.108 311.574 129.358 311.421 122.642 317.989C115.926 324.555 115.788 335.353 122.328 342.106L138.995 359.309L130.126 384.092C126.954 392.951 131.538 402.725 140.362 405.919C149.188 409.113 158.911 404.52 162.08 395.659C170.41 369.247 164.812 340.38 147.218 319.018Z" fill="#F2BCA7"/>
<path fill-rule="evenodd" clip-rule="evenodd" d="M94.8891 292.582C63.501 294.943 39.9847 322.418 42.3662 353.956L43.266 370.619C45.6511 402.156 73.0223 425.804 104.414 423.441C135.802 421.08 159.317 393.604 156.936 362.067L156.033 345.406C153.652 313.866 126.276 290.219 94.8891 292.582Z" fill="#FCD9C3"/>
<path fill-rule="evenodd" clip-rule="evenodd" d="M121.785 306.271L105.691 -15.8426C103.722 -34.578 69.4403 -46.3335 50.7907 -44.3734C32.1411 -42.4132 9.67088 -24.6929 11.64 -5.95747L54.2507 313.369C56.2202 332.107 72.9341 345.707 91.5837 343.747C110.233 341.786 123.755 325.009 121.785 306.271Z" fill="#FCD9C3"/>
<mask id="mask0_3_27" style="mask-type:luminance" maskUnits="userSpaceOnUse" x="15" y="-52" width="144" height="425">
<path d="M158.062 361.948L58.4613 372.417L15.0497 -40.6166L114.651 -51.0851L158.062 361.948Z" fill="#F2BCA7"/>
</mask>
<g mask="url(#mask0_3_27)">
<path fill-rule="evenodd" clip-rule="evenodd" d="M117.24 302.733C112.464 300.678 109.935 295.327 109.684 290.115L94.2423 -4.41076C92.2731 -23.1464 49.0425 -33.9584 30.393 -31.9982C25.2819 -31.461 20.5788 -29.782 16.451 -27.2836C21.7732 -36.0243 39.8597 -43.2243 50.7907 -44.3732C69.4403 -46.3333 103.722 -34.5777 105.691 -15.8424L120.503 290.963C120.667 294.363 122.631 297.401 125.631 298.985C142.451 307.863 158.283 324.365 156.936 362.067C156.936 362.067 158.153 320.329 117.24 302.733Z" fill="#F2BCA7"/>
</g>
<path fill-rule="evenodd" clip-rule="evenodd" d="M99.6015 426.668L99.5978 426.633L94.4671 379.001C93.669 371.602 87.0536 366.249 79.6895 367.041C72.3374 367.834 67.0198 374.456 67.7955 381.837L67.7995 381.875L72.9299 429.504C73.728 436.904 80.3438 442.259 87.7072 441.465C95.0597 440.672 100.378 434.052 99.6015 426.668Z" fill="#FCD9C3"/>
<path fill-rule="evenodd" clip-rule="evenodd" d="M146.927 418.04L146.923 418.004L141.947 370.106C141.172 362.665 134.754 357.279 127.611 358.079C120.479 358.876 115.32 365.533 116.073 372.959L116.077 372.994L121.054 420.895C121.828 428.335 128.245 433.718 135.389 432.922C142.521 432.124 147.68 425.465 146.927 418.04Z" fill="#FCD9C3"/>
<path fill-rule="evenodd" clip-rule="evenodd" d="M75.7487 422.128L75.745 422.093L70.6146 374.463C69.8165 367.064 63.2007 361.708 55.837 362.503C48.4848 363.296 43.1669 369.916 43.943 377.3L43.9467 377.335L49.0773 424.967C49.8755 432.366 56.4909 437.719 63.8547 436.927C71.2072 436.134 76.5248 429.512 75.7487 422.128Z" fill="#FCD9C3"/>
<path fill-rule="evenodd" clip-rule="evenodd" d="M70.8883 422.639L70.8846 422.604C70.8846 422.604 70.0905 373.101 70.8883 380.5L75.745 422.093L75.7487 422.128C76.5248 429.512 71.2068 436.134 63.8547 436.927C63.0094 437.018 62.176 437.019 61.357 436.953C67.4469 435.153 71.5782 429.203 70.8883 422.639Z" fill="#F2BCA7"/>
<path fill-rule="evenodd" clip-rule="evenodd" d="M122.925 424.123L122.921 424.088L117.791 376.458C116.993 369.059 110.377 363.703 103.013 364.498C95.6608 365.291 90.3429 371.911 91.119 379.295L91.1227 379.33L96.2533 426.962C97.0515 434.361 103.667 439.714 111.031 438.922C118.383 438.129 123.701 431.507 122.925 424.123Z" fill="#FCD9C3"/>
<path fill-rule="evenodd" clip-rule="evenodd" d="M118.064 424.634L118.061 424.599C118.061 424.599 117.263 374.101 118.061 381.5L122.921 424.088L122.925 424.123C123.701 431.507 118.383 438.129 111.031 438.922C110.185 439.013 109.352 439.014 108.533 438.948C114.623 437.148 118.754 431.198 118.064 424.634Z" fill="#F2BCA7"/>
<path fill-rule="evenodd" clip-rule="evenodd" d="M95.0644 427.64L95.0607 427.605C95.0607 427.605 92.7022 375.101 93.5 382.5L99.9211 427.094L99.9248 427.129C100.701 434.513 95.3522 440.707 88.0001 441.5C87.1548 441.591 86.3191 441.566 85.5001 441.5C91.59 439.7 95.7543 434.204 95.0644 427.64Z" fill="#F2BCA7"/>
<path fill-rule="evenodd" clip-rule="evenodd" d="M143.064 418.634L143.061 418.599C143.061 418.599 143.061 371.5 143.061 377L145.5 395.5L147.921 418.088L147.925 418.123C148.701 425.507 143.383 432.129 136.031 432.922C135.185 433.013 134.352 433.014 133.533 432.948C139.623 431.148 143.754 425.198 143.064 418.634Z" fill="#F2BCA7"/>
<path d="M118.748 279.076C151.771 257.651 20.6148 287.243 37.5598 305.33C40.079 308.019 50.792 306.565 54.5373 305.242" stroke="#FFB600" stroke-width="1.701"/>
<path d="M48.7478 285.146C7.61478 290.27 128.963 228.05 129.873 252.618C130.008 256.271 120.826 262.079 116.999 263.495" stroke="#FFB600" stroke-width="1.701"/>
</g>
<defs>
<clipPath id="clip0_3_27">
<rect width="182" height="529" fill="white"/>
</clipPath>
</defs>
</svg>
