<svg width="182" height="529" viewBox="0 0 182 529" fill="none" xmlns="http://www.w3.org/2000/svg">
<g clip-path="url(#clip0_2_77)">
<path opacity="0.390485" fill-rule="evenodd" clip-rule="evenodd" d="M60.9329 346.5L51.3821 385.811C51.8028 393.44 52.7303 402.79 60.259 402.731C60.4824 402.73 60.7069 402.724 60.9329 402.711C65.108 402.481 68.7603 400.459 71.1932 397.429C72.2546 402.703 76.1909 406.861 81.2134 408.298C82.0207 408.595 83.2833 408.957 85.8763 408.821C88.9143 408.662 91.673 407.545 93.8892 405.783L93.8884 405.821C93.8879 405.832 92.3183 471.999 92.3182 472.01C92.1889 477.449 95.1162 482.251 99.527 484.758C104.19 488.035 110.611 487.724 114.944 483.8C118.323 481.282 120.559 477.289 120.679 472.738L122.797 387.44C124.219 386.949 125.618 386.404 126.989 385.811L129.52 400.678C129.522 400.688 141.952 483.789 141.954 483.8C142.808 488.5 150.454 482.097 150.454 476.5C150.454 472.738 145.454 429 145.454 429C145.454 429 161.454 436 172.954 426C176.954 422.522 176.089 418.733 175.454 415L163.454 362.5C166.954 344 155.954 323.5 155.954 323.5C155.954 323.5 151.365 311.911 136.454 297C131.954 292.5 127.431 290.5 127.431 290.5V278.009C133.439 274.141 132.539 272.055 127.447 271.355L127.472 261.42C132.166 259.233 138.822 254.918 138.871 251.771C138.944 246.971 134.51 245.072 127.512 245.143L130.196 -73.003C129.154 -92.8924 93.5957 -107.2 73.7887 -106.162C73.4522 -106.144 73.1139 -106.127 72.7757 -106.094C72.5816 -106.079 72.3825 -106.059 72.1847 -106.041C72.0755 -106.031 71.9665 -106.021 71.857 -106.01C60.1272 -104.837 42.35 -98.4744 36.5714 -90.0185C38.4509 -91.0251 40.4298 -91.8726 42.4915 -92.5422C34.9148 -85.7485 29.8239 -77.021 30.3088 -67.7681L52.344 270.877C41.1682 277.531 37.7296 282.606 51.3821 281.627L53.1714 281.161L53.5425 285.771C41.1659 290.897 33.7586 296.76 38.4467 302.319C40.708 304.999 50.1651 304.503 54.9702 303.51L55.6318 311.73C55.649 312.057 55.671 312.383 55.6965 312.708C46.1289 323.697 60.5707 336.251 60.9329 352L60.259 346.5C60.0634 344.736 60.3008 348.307 60.259 346.5C75.5386 350.576 77.9888 354.344 60.9329 346.5Z" fill="#232586"/>
<path fill-rule="evenodd" clip-rule="evenodd" d="M94.8891 292.582C63.501 294.943 39.9847 322.418 42.3662 353.956L43.266 370.619C45.6511 402.156 73.0223 425.804 104.414 423.441C135.802 421.08 158.143 379.5 156 352.5C153.5 321 126.276 290.219 94.8891 292.582Z" fill="#FCD9C3"/>
<path fill-rule="evenodd" clip-rule="evenodd" d="M121.785 306.271L105.691 -15.8426C103.722 -34.578 69.4403 -46.3335 50.7907 -44.3734C32.1411 -42.4132 9.67088 -24.6929 11.64 -5.95747L54.2507 313.369C56.2202 332.107 72.9341 345.707 91.5837 343.747C110.233 341.786 123.755 325.009 121.785 306.271Z" fill="#FCD9C3"/>
<mask id="mask0_2_77" style="mask-type:luminance" maskUnits="userSpaceOnUse" x="12" y="-48" width="144" height="424">
<path d="M156 365.531L56.3993 376L12.9877 -37.0336L112.589 -47.5021L156 365.531Z" fill="#F2BCA7"/>
</mask>
<g mask="url(#mask0_2_77)">
<g style="mix-blend-mode:color">
<path fill-rule="evenodd" clip-rule="evenodd" d="M123.178 307.316C118.402 305.261 115.873 299.91 115.622 294.698L100.18 0.172245C98.2111 -18.5634 54.9805 -29.3754 36.331 -27.4152C31.2199 -26.878 26.5168 -25.199 22.389 -22.7006C27.7112 -31.4413 45.7977 -38.6413 56.7287 -39.7902C75.3783 -41.7503 109.66 -29.9947 111.629 -11.2594L126.438 297.083C143.258 305.961 157 326.5 155.5 366C155.5 366 164.091 324.912 123.178 307.316Z" fill="#F2BCA7"/>
</g>
</g>
<path d="M50.7478 285.146C9.61481 290.27 130.963 228.05 131.873 252.618C132.008 256.271 123.827 261.584 120 263" stroke="#FFB600" stroke-width="1.701"/>
<path fill-rule="evenodd" clip-rule="evenodd" d="M144.893 338.973C144.893 338.973 139.959 327.185 133.078 328.143C126.19 329.106 126.436 337.845 127.484 343.684L134.28 381.57C134.282 381.578 143.241 430.69 143.243 430.697C144.305 436.523 150.731 440.464 157.61 439.505C164.5 438.543 169.236 433.029 168.189 427.19L151.346 359.919C147.981 345.97 144.893 338.973 144.893 338.973Z" fill="#FCD9C3"/>
<path fill-rule="evenodd" clip-rule="evenodd" d="M165.29 428.034C165.29 428.034 151.85 359.864 152.999 366.004L168.634 428.026C169.768 434.182 166.469 439.289 159.076 440.296C158.214 440.414 157.359 440.454 156.519 440.435C162.479 438.589 166.287 433.449 165.29 428.034Z" fill="#F2BCA7"/>
<path fill-rule="evenodd" clip-rule="evenodd" d="M117.336 389.119C117.151 381.685 111.797 375.817 105.363 376.004C98.9213 376.194 93.8351 382.387 94.0041 389.837L95.1035 438.175C95.1036 438.186 96.6656 500.868 96.6657 500.879C96.8509 508.315 102.205 514.183 108.637 513.996C115.081 513.806 120.166 507.613 119.996 500.163L117.337 389.155C117.337 389.144 117.336 389.132 117.336 389.119Z" fill="#FCD9C3"/>
<path fill-rule="evenodd" clip-rule="evenodd" d="M149.56 438.988L146.357 424.101C146.075 422.441 146.264 420.717 146.904 419.13C148.822 414.37 154.092 412.168 158.46 413.93C159.262 414.253 159.992 414.731 160.654 415.288C162.66 416.973 163.953 419.38 164.28 422.044L166.507 433.811C165.58 440.821 155 442.824 149.56 438.988Z" fill="#CE4EAA"/>
<path fill-rule="evenodd" clip-rule="evenodd" d="M94.2335 375.119C94.041 367.685 88.4813 361.817 81.8003 362.004C75.1105 362.194 69.8288 368.387 70.0042 375.837L71.1459 424.175C71.146 424.186 72.7681 486.868 72.7682 486.879C72.9606 494.315 78.5203 500.183 85.2004 499.996C91.8914 499.806 97.1719 493.613 96.9957 486.163L94.2344 375.155C94.2344 375.144 94.2335 375.132 94.2335 375.119Z" fill="#FCD9C3"/>
<path fill-rule="evenodd" clip-rule="evenodd" d="M77.4227 496.649L77.0048 481.217C76.9514 479.526 77.3421 477.853 78.131 476.394C80.494 472.023 85.6303 470.77 89.4399 473.282C90.1389 473.743 90.7516 474.343 91.2932 475.01C92.9328 477.03 93.8248 479.64 93.7939 482.334L94 495.092L93.361 495.891C89.2319 501.055 81.9612 501.401 77.4227 496.649Z" fill="#CE4EAA"/>
<path fill-rule="evenodd" clip-rule="evenodd" d="M118.604 500.26C118.604 500.26 116.499 398.99 116.5 399L123.733 500.117C123.927 507.554 118.083 513.737 110.678 513.926C109.815 513.948 108.97 513.88 108.148 513.743C114.273 512.368 118.775 506.803 118.604 500.26Z" fill="#F2BCA7"/>
<path fill-rule="evenodd" clip-rule="evenodd" d="M101 511L100.861 496.475C100.804 494.807 101.221 493.157 102.063 491.718C104.585 487.407 110.067 486.171 114.133 488.648C114.879 489.103 115.533 489.695 116.111 490.353C117.861 492.345 118.813 494.919 118.78 497.576L119 511C114.593 516.093 104.5 516 101 511Z" fill="#CE4EAA"/>
<path fill-rule="evenodd" clip-rule="evenodd" d="M94.2335 375.119C94.041 367.685 88.4813 361.817 81.8003 362.004C75.1105 362.194 69.8288 368.387 70.0042 375.837L71.1459 424.175C71.146 424.186 72.7681 486.868 72.7682 486.879C72.9606 494.315 78.5203 500.183 85.2004 499.996C91.8914 499.806 97.1719 493.613 96.9957 486.163L94.2344 375.155C94.2344 375.144 94.2335 375.132 94.2335 375.119Z" fill="#FCD9C3"/>
<path fill-rule="evenodd" clip-rule="evenodd" d="M92.3898 486.265C92.3898 486.265 91.4991 400.49 91.5 400.5L96.9958 486.121C97.17 493.593 91.9219 499.806 85.272 499.996C84.497 500.018 83.7382 499.949 83 499.812C88.5004 498.43 92.5434 492.839 92.3898 486.265Z" fill="#F2BCA7"/>
<path fill-rule="evenodd" clip-rule="evenodd" d="M76.5 496.5L76.0048 481.217C75.9514 479.526 76.3421 477.853 77.131 476.394C79.494 472.023 84.6303 470.77 88.4399 473.282C89.1389 473.743 89.7516 474.343 90.2932 475.01C91.9328 477.03 92.8248 479.64 92.7939 482.334L92.7939 497C88 501.5 80.5 501 76.5 496.5Z" fill="#CE4EAA"/>
<path fill-rule="evenodd" clip-rule="evenodd" d="M124.656 355.205C131.176 354.684 124.088 347.791 124.656 355.205C118.128 355.729 113.283 362.179 113.836 369.61L117.425 417.829C117.426 417.84 122.219 480.358 122.22 480.369C122.789 487.785 128.523 493.367 135.042 492.845C141.572 492.321 146.415 485.871 145.862 478.44L135.403 360.79C127.835 364.565 115.268 346.571 124.656 355.205Z" fill="#FCD9C3"/>
<path fill-rule="evenodd" clip-rule="evenodd" d="M142.46 478.716L135.5 371.5L147.638 478.307C148.217 485.76 142.627 492.267 135.15 492.84C134.279 492.907 133.421 492.882 132.583 492.787C138.704 491.09 142.97 485.273 142.46 478.716Z" fill="#F2BCA7"/>
<path fill-rule="evenodd" clip-rule="evenodd" d="M126.851 489.914L125.644 474.524C125.504 472.838 125.809 471.147 126.522 469.65C128.658 465.164 133.724 463.649 137.657 465.962C138.378 466.387 139.021 466.955 139.596 467.594C141.337 469.527 142.361 472.088 142.468 474.78L143.5 489C139.5 494.5 131 494.5 126.851 489.914Z" fill="#CE4EAA"/>
<path fill-rule="evenodd" clip-rule="evenodd" d="M70.5409 356.407C70.3698 349.943 65.4278 344.841 59.4891 345.004C53.5427 345.168 48.8478 350.554 49.0038 357.032L50.0186 399.066C50.0187 399.075 51.4605 453.581 51.4606 453.591C51.6316 460.057 56.5736 465.159 62.5115 464.996C68.459 464.832 73.1528 459.446 72.9962 452.968L70.5417 356.439C70.5417 356.429 70.5409 356.419 70.5409 356.407Z" fill="#FCD9C3"/>
<path fill-rule="evenodd" clip-rule="evenodd" d="M68.7191 453C68.7191 453 68.7183 396.491 68.7191 396.5L72.9961 452.874C73.1579 459.403 68.2846 464.83 62.1097 464.996C61.3901 465.016 60.6855 464.956 60 464.836C65.1075 463.629 68.8617 458.743 68.7191 453Z" fill="#F2BCA7"/>
<path fill-rule="evenodd" clip-rule="evenodd" d="M54.0043 461.5L54.0043 448.901C53.9571 447.451 54.3019 446.017 54.998 444.767C57.0829 441.02 61.615 439.946 64.9764 442.099C65.5931 442.494 66.1338 443.008 66.6116 443.58C68.0584 445.311 68.8454 447.548 68.8181 449.857L68.8181 461.5C66 466.5 57.5 466.5 54.0043 461.5Z" fill="#CE4EAA"/>
<path d="M121 279.5C154.023 258.075 23.555 287.155 40.5 305.242C43.0192 307.931 49.2547 306.565 53 305.242" stroke="#FFB600" stroke-width="1.701"/>
</g>
<defs>
<clipPath id="clip0_2_77">
<rect width="182" height="529" fill="white"/>
</clipPath>
</defs>
</svg>
