<svg width="182" height="529" viewBox="0 0 182 529" fill="none" xmlns="http://www.w3.org/2000/svg">
<path opacity="0.390485" fill-rule="evenodd" clip-rule="evenodd" d="M43.9811 376.812L46.7625 427.385C47.1832 435.014 53.5063 440.908 61.035 440.849C61.2584 440.848 61.4829 440.842 61.7089 440.829C65.884 440.599 69.5363 438.577 71.9692 435.547C73.0306 440.821 76.9669 444.979 81.9894 446.416C82.7967 446.713 84.0593 447.075 86.6523 446.939C89.6903 446.78 92.449 445.663 94.6652 443.901L94.6644 443.939C94.6639 443.95 93.0943 510.117 93.0942 510.128C92.9649 515.567 95.8922 520.369 100.303 522.876C104.966 526.153 111.387 525.842 115.72 521.918C119.099 519.4 121.335 515.407 121.455 510.856L123.573 425.558C124.995 425.067 126.394 424.522 127.765 423.929L130.296 438.796C130.298 438.806 141.566 504.023 141.568 504.034C142.367 508.659 145.305 512.374 149.186 514.335L149.195 514.378C155.073 518.395 163.102 516.649 166.794 510.55L167.365 509.606L167.346 509.506C169.285 506.585 170.162 502.946 169.527 499.213L154.791 413.368C160.4 412.212 165.361 408.392 167.745 402.692C177.671 376.163 173.958 346.488 157.954 323.281C152.752 312.567 145.069 305.304 136.866 300.015C136.02 299.458 135.16 298.922 134.285 298.407C132.338 297.147 130.895 295.286 130.165 293.144L130.207 276.127C136.215 272.259 135.315 270.173 130.223 269.473L130.248 259.538C134.942 257.351 141.598 253.036 141.647 249.889C141.72 245.089 137.286 243.19 130.288 243.261L130.972 -34.8847C129.93 -54.7741 94.3717 -69.0816 74.5647 -68.0435C74.2282 -68.0259 73.8899 -68.0082 73.5517 -67.9755C73.3576 -67.9604 73.1585 -67.9411 72.9607 -67.9226C72.8515 -67.9123 72.7425 -67.903 72.633 -67.8916C60.9032 -66.7185 43.126 -60.3561 37.3474 -51.9002C39.2269 -52.9068 41.2058 -53.7542 43.2675 -54.4238C35.6908 -47.6301 30.5999 -38.9027 31.0848 -29.6498L55.12 268.995C43.9442 275.649 40.5056 280.724 54.1581 279.745L55.9474 279.279L56.3185 283.889C43.9419 289.015 36.5346 294.878 41.2227 300.437C43.484 303.117 52.9411 302.621 57.7462 301.628L58.4078 309.848C58.425 310.175 58.447 310.501 58.4725 310.826C48.9049 321.815 43.2441 336.292 43.6063 352.041L43.6344 369.684C43.6762 371.491 43.8008 373.278 43.9964 375.042C43.9577 375.611 43.9485 376.189 43.9791 376.774L43.9811 376.812Z" fill="#232586"/>
<path fill-rule="evenodd" clip-rule="evenodd" d="M147.218 319.018L146.65 318.328C140.108 311.574 129.358 311.421 122.642 317.989C115.926 324.555 115.788 335.353 122.328 342.106L138.995 359.309L130.126 384.092C126.954 392.951 131.538 402.725 140.362 405.919C149.188 409.113 158.911 404.52 162.08 395.659C170.41 369.247 164.812 340.38 147.218 319.018Z" fill="#F2BCA7"/>
<path fill-rule="evenodd" clip-rule="evenodd" d="M94.8891 292.582C63.501 294.943 39.9847 322.418 42.3662 353.956L43.266 370.619C45.6511 402.156 73.0223 425.804 104.414 423.441C135.802 421.08 159.317 393.604 156.936 362.067L156.033 345.406C153.652 313.866 126.276 290.219 94.8891 292.582Z" fill="#FCD9C3"/>
<mask id="mask0_23_5454" style="mask-type:luminance" maskUnits="userSpaceOnUse" x="8" y="-50" width="135" height="399">
<path d="M142.918 338.351L48.8673 348.236L8.07426 -39.8836L102.125 -49.7687L142.918 338.351Z" fill="#FCD9C3"/>
</mask>
<path fill-rule="evenodd" clip-rule="evenodd" d="M121.785 306.271L105.691 -15.8426C103.722 -34.578 69.4403 -46.3335 50.7907 -44.3734C32.1411 -42.4132 9.67087 -24.6929 11.64 -5.95749L54.2507 313.369C56.2202 332.107 72.9341 345.707 91.5837 343.747C110.233 341.786 123.755 325.009 121.785 306.271Z" fill="#FCD9C3"/>
<mask id="mask1_23_5454" style="mask-type:luminance" maskUnits="userSpaceOnUse" x="15" y="-52" width="144" height="425">
<path d="M158.062 361.948L58.4613 372.417L15.0497 -40.6166L114.651 -51.0851L158.062 361.948Z" fill="#F2BCA7"/>
</mask>
<g mask="url(#mask1_23_5454)">
<path fill-rule="evenodd" clip-rule="evenodd" d="M117.24 302.733C112.464 300.678 109.935 295.327 109.684 290.115L94.2423 -4.41076C92.2731 -23.1464 49.0425 -33.9584 30.393 -31.9982C25.2819 -31.461 20.5788 -29.782 16.451 -27.2836C21.7732 -36.0243 39.8597 -43.2243 50.7907 -44.3732C69.4403 -46.3333 103.722 -34.5777 105.691 -15.8424L120.503 290.963C120.667 294.363 122.631 297.401 125.631 298.985C142.451 307.863 158.283 324.365 156.936 362.067C156.936 362.067 158.153 320.329 117.24 302.733Z" fill="#F2BCA7"/>
</g>
<path fill-rule="evenodd" clip-rule="evenodd" d="M144.094 378.575C142.449 371.336 135.281 366.79 128.065 368.417C120.841 370.049 116.305 377.257 117.935 384.515L128.511 431.614C128.514 431.624 142.383 492.669 142.385 492.678C144.03 499.92 151.198 504.466 158.412 502.839C165.638 501.208 170.173 494 168.544 486.741L144.102 378.61C144.099 378.6 144.096 378.588 144.094 378.575Z" fill="#FCD9C3"/>
<path fill-rule="evenodd" clip-rule="evenodd" d="M163.541 487.883C163.541 487.883 142.449 371.336 144.093 378.575C144.096 378.588 144.099 378.6 144.101 378.61L168.543 486.741C170.173 494 165.638 501.207 158.412 502.839C157.57 503.029 156.728 503.127 155.896 503.154C161.636 500.608 164.975 494.269 163.541 487.883Z" fill="#F2BCA7"/>
<path fill-rule="evenodd" clip-rule="evenodd" d="M99.6015 426.668L99.5978 426.633L94.4671 379.001C93.669 371.602 87.0536 366.249 79.6895 367.041C72.3374 367.834 67.0198 374.456 67.7955 381.837L67.7995 381.875L72.9299 429.504C73.728 436.904 80.3438 442.259 87.7072 441.465C95.0597 440.672 100.378 434.052 99.6015 426.668Z" fill="#FCD9C3"/>
<path fill-rule="evenodd" clip-rule="evenodd" d="M91.708 427.441C91.7101 427.429 91.7094 427.454 91.708 427.441C91.708 427.441 93.9476 400.184 93.8601 389.977L95.6523 389.094L99.5978 426.633L99.6015 426.668C100.378 434.052 95.0618 440.692 87.7072 441.465C83.9929 441.855 83.1222 441.003 82.3038 440.938C88.3934 439.139 90.6454 434.111 91.708 427.441Z" fill="#F2BCA7"/>
<path fill-rule="evenodd" clip-rule="evenodd" d="M120.675 389.26C120.462 381.839 114.309 375.981 106.915 376.168C99.5114 376.357 93.666 382.54 93.8602 389.977L95.1237 438.234C95.1238 438.245 96.919 500.821 96.9191 500.832C97.132 508.255 103.285 514.113 110.678 513.926C118.083 513.737 123.927 507.554 123.732 500.117L120.676 389.296C120.676 389.285 120.675 389.273 120.675 389.26Z" fill="#FCD9C3"/>
<path fill-rule="evenodd" clip-rule="evenodd" d="M75.7487 422.128L75.745 422.093L70.6146 374.463C69.8165 367.064 63.2007 361.708 55.837 362.503C48.4848 363.296 43.1669 369.916 43.943 377.3L43.9467 377.335L49.0773 424.967C49.8755 432.366 56.4909 437.719 63.8547 436.927C71.2072 436.134 76.5248 429.512 75.7487 422.128Z" fill="#FCD9C3"/>
<path fill-rule="evenodd" clip-rule="evenodd" d="M70.8883 422.639L70.8846 422.604C70.8846 422.604 71.2165 380.384 72.0143 387.783L75.745 422.093L75.7487 422.128C76.5248 429.512 71.2068 436.134 63.8547 436.927C63.0094 437.018 62.176 437.019 61.357 436.953C67.4469 435.153 71.5782 429.203 70.8883 422.639Z" fill="#F2BCA7"/>
<path fill-rule="evenodd" clip-rule="evenodd" d="M118.604 500.26C118.604 500.26 121.505 419.369 121.506 419.379L123.733 500.117C123.927 507.554 118.083 513.737 110.678 513.926C109.815 513.948 108.97 513.88 108.148 513.743C114.273 512.368 118.775 506.803 118.604 500.26Z" fill="#F2BCA7"/>
<path fill-rule="evenodd" clip-rule="evenodd" d="M150.097 502.072L146.331 487.32C145.91 485.704 145.955 484.002 146.461 482.413C147.978 477.648 153.054 475.232 157.561 476.751C158.389 477.029 159.157 477.463 159.864 477.978C162.007 479.535 163.499 481.836 164.048 484.435L167.017 496.666L166.524 497.585C163.34 503.529 155.847 505.575 150.097 502.072Z" fill="#CE4EAA"/>
<path fill-rule="evenodd" clip-rule="evenodd" d="M102.417 510.995L101.971 495.775C101.914 494.107 102.331 492.457 103.173 491.018C105.695 486.707 111.177 485.471 115.243 487.948C115.989 488.403 116.643 488.995 117.221 489.653C118.971 491.645 119.923 494.219 119.89 496.876L120.11 509.46L119.428 510.248C115.021 515.341 107.261 515.682 102.417 510.995Z" fill="#CE4EAA"/>
<path d="M118.748 279.076C151.771 257.651 20.6148 287.243 37.5598 305.33C40.079 308.019 50.792 306.565 54.5373 305.242" stroke="#FFB600" stroke-width="1.701"/>
<path d="M48.7478 285.146C7.6148 290.27 128.963 228.05 129.873 252.618C130.008 256.271 120.826 262.079 116.999 263.495" stroke="#FFB600" stroke-width="1.701"/>
</svg>
