<svg width="141" height="162" viewBox="0 0 141 162" fill="none" xmlns="http://www.w3.org/2000/svg">
<g id="Player-2">
<g id="Group-3">
<g id="Mask group">
<mask id="mask0_23_8889" style="mask-type:luminance" maskUnits="userSpaceOnUse" x="0" y="0" width="141" height="162">
<g id="Group">
<path id="Vector" d="M0 0H140.148V161.77H0V0Z" fill="#EE413C"/>
</g>
</mask>
<g mask="url(#mask0_23_8889)">
<path id="Fill-1" fill-rule="evenodd" clip-rule="evenodd" d="M54.246 1.83622C23.4208 8.02394 -3.31075 39.2847 0.333879 80.9012C3.97851 122.519 36.8861 173.231 110.8 159.467C141.501 152.064 138.642 118.11 137.192 101.368C135.743 84.6277 148.478 55.3015 130.084 27.171C111.692 -0.95793 75.9557 -2.52229 54.246 1.83622Z" fill="#EE413C"/>
</g>
</g>
</g>
<path id="Fill-4" fill-rule="evenodd" clip-rule="evenodd" d="M26.9087 72.5968C11.1553 80.5502 11.2913 114.145 30.9312 125.058C50.5727 135.972 79.0688 129.739 83.7539 121.061C90.8186 107.97 74.2873 83.9298 58.1323 75.3584C44.4567 68.1035 34.8857 68.5682 26.9087 72.5968Z" fill="#FFD91D"/>
<path id="Fill-6" fill-rule="evenodd" clip-rule="evenodd" d="M36.1607 82.1315C24.3144 88.1133 24.3018 110.697 39.0716 118.903C53.8431 127.111 72.8758 122.662 76.2848 116.076C80.2726 108.376 71.7911 90.655 59.6413 84.2086C49.3572 78.7519 42.1597 79.1035 36.1607 82.1315Z" fill="#F3DFA2"/>
<path id="Fill-8" fill-rule="evenodd" clip-rule="evenodd" d="M137.192 101.368C136.231 90.2551 141.509 73.5971 139.795 55.4258C136.387 49.6299 130.51 47.3206 121.271 52.1128C111.408 57.2287 94.0905 78.1678 103.568 104.209C107.034 113.734 125.32 116.985 135.443 106.326C136.115 105.618 136.763 104.705 137.385 103.637C137.32 102.855 137.255 102.09 137.192 101.368Z" fill="#FFD91D"/>
<path id="Fill-10" fill-rule="evenodd" clip-rule="evenodd" d="M119.034 61.8079C111.635 65.646 100.942 80.3834 108.051 99.9177C110.652 107.063 122.071 110.472 129.664 102.475C137.527 94.1946 141.439 50.1852 119.034 61.8079Z" fill="#F3DFA2"/>
<path id="Fill-12" fill-rule="evenodd" clip-rule="evenodd" d="M69.0052 115.228C64.853 106.359 52.0723 100.951 43.8296 108.159C43.0817 108.811 43.6256 110.335 44.7277 110.019C48.9795 108.803 53.0953 107.467 57.5479 108.515C61.8883 109.538 65.4744 112.318 67.9853 115.872C68.3885 116.442 69.2866 115.831 69.0052 115.228Z" fill="#1B122E"/>
<path id="Fill-14" fill-rule="evenodd" clip-rule="evenodd" d="M115.131 100.828C116.476 92.6597 121.291 87.3021 127.121 81.7293C127.82 81.0587 127.123 79.866 126.172 80.2858C118.258 83.7785 114.133 92.6178 113.371 100.68C113.265 101.801 114.952 101.916 115.131 100.828Z" fill="#1B122E"/>
<path id="Fill-16" fill-rule="evenodd" clip-rule="evenodd" d="M114.118 66.2701C111.131 66.518 108.632 69.642 106.996 71.8197C104.82 74.7146 102.842 78.0833 104.556 81.6241C105.081 82.7098 106.487 83.509 107.728 83.2085C111.605 82.2653 113.033 78.991 114.195 75.5293C115.065 72.9396 116.341 69.3322 115.003 66.7131C114.827 66.3693 114.489 66.2392 114.118 66.2701Z" fill="#1B122E"/>
<path id="Fill-18" fill-rule="evenodd" clip-rule="evenodd" d="M53.0619 89.6745C54.2683 92.3138 57.9082 93.6644 60.4887 94.6309C64.0053 95.9474 67.4586 96.9743 70.6984 94.6045C71.7278 93.8502 71.9855 92.2859 71.4542 91.1893C69.7402 87.6439 65.9438 87.0368 62.2644 86.8385C59.4783 86.6898 55.372 86.6046 53.2722 88.7219C53.0113 88.9852 52.9022 89.326 53.0619 89.6745Z" fill="#1B122E"/>
<path id="Fill-20" fill-rule="evenodd" clip-rule="evenodd" d="M112.394 114.128C113.055 112.324 97.7852 88.0269 92.5752 89.9677C88.3107 91.5599 84.9823 122.43 87.2055 122.808" fill="#FFD91D"/>
<path id="Fill-22" fill-rule="evenodd" clip-rule="evenodd" d="M101.048 123.965C90.6693 127.103 73.3158 132.344 77.6641 144.707C81.4083 155.348 101.015 151.29 108.108 147.252C114.506 143.612 129.905 139.117 128.12 126.229C126.333 113.341 106.333 122.368 101.048 123.965Z" fill="#FFD91D"/>
<path id="Fill-24" fill-rule="evenodd" clip-rule="evenodd" d="M101.407 126.639C93.4823 129.035 80.2336 133.037 83.5525 142.476C86.4112 150.6 101.382 147.502 106.797 144.418C111.683 141.64 123.439 138.207 122.076 128.366C120.713 118.526 105.442 125.418 101.407 126.639Z" fill="#F3DFA2"/>
<path id="Fill-26" fill-rule="evenodd" clip-rule="evenodd" d="M94.0571 93.6136C90.9801 94.7598 88.5799 117.031 90.1832 117.304C91.7865 117.575 107.877 112.343 108.354 111.041C108.83 109.74 97.814 92.2134 94.0571 93.6136Z" fill="#F3DFA2"/>
<path id="Fill-28" fill-rule="evenodd" clip-rule="evenodd" d="M102.845 132.094C99.9042 132.917 89.6439 131.506 87.7291 134.828C85.8142 138.149 86.8215 145.534 105.823 140.18C124.824 134.824 120.192 126.692 116.431 126.108C112.669 125.524 102.845 132.094 102.845 132.094Z" fill="white"/>
<path id="Fill-30" fill-rule="evenodd" clip-rule="evenodd" d="M96.6855 132.459C97.122 135.554 97.6343 138.763 98.5166 141.771C99.2439 141.669 100.008 141.543 100.822 141.385C100.155 138.393 99.3277 135.42 98.6525 132.42C98.0201 132.43 97.3591 132.442 96.6855 132.459Z" fill="#1B122E"/>
<path id="Fill-32" fill-rule="evenodd" clip-rule="evenodd" d="M108.077 128.965C109.242 132.026 110.4 135.177 111.923 138.044C112.604 137.745 113.221 137.443 113.799 137.138C112.811 134.03 111.334 130.988 109.981 127.989C109.334 128.302 108.695 128.63 108.077 128.965Z" fill="#1B122E"/>
<path id="Fill-34" fill-rule="evenodd" clip-rule="evenodd" d="M88.1012 59.8202C88.1945 59.8202 88.1945 59.6792 88.1012 59.6792C88.0079 59.6792 88.0079 59.8202 88.1012 59.8202Z" fill="#FFD91D"/>
<path id="Fill-36" fill-rule="evenodd" clip-rule="evenodd" d="M31.0092 49.6675C28.7386 47.9033 25.0149 48.196 22.8771 50.0113C19.5029 52.8783 19.2214 57.9012 22.1245 61.2189C23.9903 63.3517 26.5755 65.2088 29.5592 63.8489C31.3697 63.0264 32.9524 60.8565 33.6861 59.0459C35.1155 55.5222 33.985 51.9799 31.0092 49.6675Z" fill="#FFD91D"/>
<path id="Fill-38" fill-rule="evenodd" clip-rule="evenodd" d="M6.63436 62.0755C2.96127 62.9103 0.23214 66.3225 0.997433 70.1187C2.00149 75.0952 6.98538 77.7732 11.8886 76.8284C16.2907 75.9781 18.1992 71.57 16.6433 67.6917C15.1143 63.883 10.8798 61.1105 6.63436 62.0755Z" fill="#FFD91D"/>
<path id="Fill-40" fill-rule="evenodd" clip-rule="evenodd" d="M5.92808 94.6447C7.58832 94.5007 8.79319 93.7154 10.017 92.6823C12.1042 90.9197 11.195 88.2061 9.02088 87.0971C9.27861 87.2256 9.22643 87.1916 8.86434 86.9949C8.44216 86.7331 8.00259 86.4977 7.54879 86.2901C6.65226 85.9649 5.22919 85.8503 4.29155 86.0222C3.07878 86.2421 1.95772 87.0119 1.23828 88.0295C1.54977 89.9253 1.92293 91.8304 2.35618 93.7402C3.36814 94.4263 4.65364 94.7547 5.92808 94.6447Z" fill="#FFD91D"/>
<path id="Fill-42" fill-rule="evenodd" clip-rule="evenodd" d="M124.301 28.7652C120.036 31.9791 121.164 37.9856 125.077 40.8789C126.535 41.9569 128.807 42.166 130.429 41.3265C132.537 40.2361 134.194 38.1776 134.831 35.9333C133.639 33.2259 132.203 30.5154 130.483 27.8142C128.481 27.0661 126.282 27.2736 124.301 28.7652Z" fill="#FFD91D"/>
<path id="Fill-44" fill-rule="evenodd" clip-rule="evenodd" d="M54.7361 30.5698C60.6386 34.445 63.7504 40.0736 64.5521 46.9614C65.1102 51.7459 63.9196 58.2232 66.0526 62.6607C67.6069 65.8963 71.5978 67.2763 73.8573 63.9292C73.8984 63.8704 73.8336 63.7976 73.7672 63.8239C68.9082 65.8359 70.0799 50.8677 70.0498 49.136C69.9866 45.5303 69.6893 41.923 68.5034 38.4845C66.4511 32.5368 62.0285 27.5774 56.6477 24.2457C50.7673 20.6044 43.7437 18.8944 36.8608 18.405C32.6232 18.1014 27.7942 18.4452 23.3195 18.0178C21.1248 20.0576 19.044 22.2586 17.0928 24.6097C17.8533 24.8436 18.6249 25.0496 19.4029 25.206C31.4784 27.6331 43.5887 23.2514 54.7361 30.5698Z" fill="#FFD91D"/>
<path id="Fill-46" fill-rule="evenodd" clip-rule="evenodd" d="M77.7725 22.1596C76.7431 28.51 77.6824 35.1515 81.0677 40.7042C82.701 43.3853 84.8499 45.611 87.171 47.7237C89.1459 49.5235 101.457 57.765 96.6819 60.8224C96.6281 60.8565 96.6629 60.9463 96.723 60.9479C101.873 61.1105 102.456 56.2099 99.9296 52.6893C97.0629 48.6979 92.5439 45.9673 89.2993 42.2825C84.4182 36.7422 82.7453 30.3129 84.2538 23.1432C86.0468 14.6198 91.6205 9.16466 96.8289 3.24335C93.9385 2.39921 91.0181 1.7301 88.0992 1.23447C88.0296 1.31811 87.9569 1.40329 87.8889 1.48693C83.0046 7.49653 79.0169 14.4881 77.7725 22.1596Z" fill="#FFD91D"/>
<path id="Fill-48" fill-rule="evenodd" clip-rule="evenodd" d="M55.5914 14.2539C55.6942 14.2229 55.7512 14.0432 55.612 14.0122C51.6559 13.1356 47.8262 12.1954 44.365 10.0193C42.8012 9.03573 41.4398 7.79509 40.0563 6.58698C38.6554 7.25299 37.2782 7.9856 35.9199 8.75848C38.083 10.0549 39.9519 11.7462 42.2763 12.9218C46.3668 14.9911 51.1878 15.558 55.5914 14.2539Z" fill="#FFD91D"/>
<path id="Fill-50" fill-rule="evenodd" clip-rule="evenodd" d="M70.7669 9.26818C70.7194 9.32239 70.7953 9.39209 70.8523 9.36731C75.3808 7.46685 76.7564 4.21578 78.132 0.139168C76.6157 0.0586275 75.1151 0.0183569 73.6272 0.00906372C73.8391 3.19973 73.3853 6.3052 70.7669 9.26818Z" fill="#FFD91D"/>
<path id="Fill-52" fill-rule="evenodd" clip-rule="evenodd" d="M94.0426 34.8935C94.1074 34.9942 94.2956 34.9926 94.3003 34.847C94.4853 29.0233 93.8734 23.7463 96.2768 18.1921C98.3371 13.4278 102.01 9.82821 106.072 6.66698C105.019 6.18373 103.953 5.73921 102.88 5.31482C93.6441 11.4654 87.8254 25.0706 94.0426 34.8935Z" fill="#FFD91D"/>
<path id="Fill-54" fill-rule="evenodd" clip-rule="evenodd" d="M13.0982 39.8051C23.047 40.4572 41.5169 32.8306 48.0914 42.2058C48.7524 43.1476 50.2972 42.1331 49.7912 41.134C46.7601 35.1616 40.8053 33.8125 34.4316 33.3618C28.4658 32.9405 18.947 33.8404 11.7874 31.8827C10.3454 34.1471 9.00453 36.506 7.79492 38.9672C9.4441 39.4287 11.2609 39.6843 13.0982 39.8051Z" fill="#FFD91D"/>
<path id="Fill-56" fill-rule="evenodd" clip-rule="evenodd" d="M54.2458 1.83569C32.1566 6.27009 12.1752 23.5818 3.96094 48.3512C5.16106 46.728 6.44498 45.1621 7.77318 43.6597C20.6836 29.0648 38.3233 18.5449 57.4857 14.0098C76.6496 9.4747 97.2461 10.9446 115.536 18.1561C119.928 19.8877 124.204 21.9849 128.203 24.4739C109.342 -1.0514 75.2376 -2.37723 54.2458 1.83569Z" fill="#EE413C"/>
</g>
</svg>
