<svg width="203" height="196" viewBox="0 0 203 196" fill="none" xmlns="http://www.w3.org/2000/svg">
<g id="blood">
<path id="Path-6" fill-rule="evenodd" clip-rule="evenodd" d="M169.799 61.9476C166.249 68.8038 165.478 76.2207 167.487 84.1983C168.942 89.9776 185.196 90.0624 183.325 95.8022C182.734 97.6175 177.874 96.9479 178.429 98.7746L168.745 97.4426C170.429 102.981 179.071 103.924 181.582 109.14C182.523 111.095 177.983 111.652 175.944 112.395C175.882 112.418 170.234 109.413 160.266 104.067C148.45 97.7294 135.322 113.826 129.404 120.445C119.309 131.736 123.217 142.314 123.217 156.558C123.217 164.181 118.173 167.106 115.205 166.775C103.201 165.438 120.756 145.526 111.536 133.91C103.607 123.919 101.74 143.362 94.0362 138.123C90.5914 135.78 99.2386 108.236 83.4961 120.14C81.7481 121.462 79.17 124.418 77.001 125.371C63.4128 131.345 83.1871 112.303 72.2191 100.963C65.0717 93.5735 39.6284 115.944 31.9098 118.81C28.8751 119.937 21.7806 119.559 21.4201 114.374C20.356 99.0671 65.5985 104.073 66.1179 86.9521C66.209 83.9479 63.5702 81.1661 63.9904 78.1901C64.4293 75.0822 68.5432 73.074 68.5208 69.9353C68.4603 61.4886 54.4059 67.8497 51.0512 59.3431C50.6683 58.3721 50.5786 57.0353 51.2264 56.2169C61.9824 42.6281 64.9538 70.806 77.8617 53.4275C79.6323 51.0436 70.4235 46.4862 68.5208 42.2865C66.6181 38.0868 71.4985 35.5215 76.2824 42.2865C77.4153 43.8886 78.7355 46.8126 83.7456 47.7312C114.814 53.4275 113.42 41.2206 117.045 33.8039C119.878 28.0085 122.339 27.9576 124.428 33.6511C124.464 33.7517 124.504 33.8509 124.547 33.9489L126.364 38.0452C127.578 40.7814 129.733 42.9907 132.439 44.2709L169.799 61.9476Z" fill="#E95847"/>
<path id="Path-4" fill-rule="evenodd" clip-rule="evenodd" d="M119.481 23.2435C114.979 11.3359 126.355 12.0064 124.937 19.0575C124.122 23.1118 122.511 22.9655 119.886 23.524L119.481 23.2435Z" fill="#E95847"/>
<path id="Path-4-Copy" fill-rule="evenodd" clip-rule="evenodd" d="M71.7105 130.389C69.3301 138.535 63.5422 133.614 67.1262 130.429C69.1869 128.597 69.9859 129.322 71.6076 130.077L71.7105 130.389Z" fill="#E95847"/>
</g>
</svg>
